<svg width="25" height="24" viewBox="0 0 25 24" fill="none" xmlns="http://www.w3.org/2000/svg">
<path d="M3.35127 23.6571L13.7628 13.4684C13.9829 13.2531 14.1575 12.9974 14.2766 12.7161C14.3958 12.4347 14.4571 12.1331 14.4571 11.8286C14.4571 11.524 14.3958 11.2224 14.2766 10.9411C14.1575 10.6597 13.9829 10.4041 13.7628 10.1888L3.35128 5.87845e-06L-4.84665e-05 3.27963L8.73579 11.8286L-4.99616e-05 20.3817L3.35127 23.6571Z" fill="white"/>
<path d="M21.1058 0L10.6943 10.1888C10.4742 10.4041 10.2996 10.6597 10.1805 10.9411C10.0613 11.2224 10 11.524 10 11.8286C10 12.1331 10.0613 12.4347 10.1805 12.7161C10.2996 12.9974 10.4742 13.2531 10.6943 13.4684L21.1058 23.6571L24.4571 20.3775L15.7213 11.8286L24.4571 3.27541L21.1058 0Z" fill="white"/>
</svg>
