<svg width="25" height="24" viewBox="0 0 25 24" fill="none" xmlns="http://www.w3.org/2000/svg">
<mask id="path-1-inside-1" fill="white">
<path fill-rule="evenodd" clip-rule="evenodd" d="M12.2286 8.68733L21.1058 0L24.4571 3.27541L15.7213 11.8286L24.4571 20.3775L21.1058 23.6571L12.2286 14.9698L3.35133 23.6572L1.07768e-05 20.3818L8.73586 11.8286L1.22719e-05 3.27965L3.35134 2.19173e-05L12.2286 8.68733Z"/>
</mask>
<path fill-rule="evenodd" clip-rule="evenodd" d="M12.2286 8.68733L21.1058 0L24.4571 3.27541L15.7213 11.8286L24.4571 20.3775L21.1058 23.6571L12.2286 14.9698L3.35133 23.6572L1.07768e-05 20.3818L8.73586 11.8286L1.22719e-05 3.27965L3.35134 2.19173e-05L12.2286 8.68733Z" fill="#DFDFDF"/>
<path d="M21.1058 0L21.8048 -0.71516L21.1054 -1.39873L20.4064 -0.714711L21.1058 0ZM12.2286 8.68733L11.5291 9.40204L12.2286 10.0865L12.928 9.40204L12.2286 8.68733ZM24.4571 3.27541L25.1567 3.98995L25.8872 3.27477L25.1561 2.56025L24.4571 3.27541ZM15.7213 11.8286L15.0217 11.114L14.2917 11.8287L15.0219 12.5433L15.7213 11.8286ZM24.4571 20.3775L25.1566 21.0922L25.8869 20.3775L25.1566 19.6628L24.4571 20.3775ZM21.1058 23.6571L20.4064 24.3719L21.1058 25.0563L21.8052 24.3719L21.1058 23.6571ZM12.2286 14.9698L12.928 14.2551L12.2286 13.5707L11.5292 14.2551L12.2286 14.9698ZM3.35133 23.6572L2.65237 24.3723L3.35178 25.0559L4.05075 24.3719L3.35133 23.6572ZM1.07768e-05 20.3818L-0.699585 19.6672L-1.43003 20.3824L-0.69895 21.0969L1.07768e-05 20.3818ZM8.73586 11.8286L9.43545 12.5431L10.1654 11.8284L9.43528 11.1139L8.73586 11.8286ZM1.22719e-05 3.27965L-0.699408 2.56494L-1.42974 3.27965L-0.699408 3.99436L1.22719e-05 3.27965ZM3.35134 2.19173e-05L4.05076 -0.714689L3.35134 -1.39915L2.65192 -0.714689L3.35134 2.19173e-05ZM20.4064 -0.714711L11.5291 7.97262L12.928 9.40204L21.8052 0.714711L20.4064 -0.714711ZM25.1561 2.56025L21.8048 -0.71516L20.4069 0.71516L23.7582 3.99057L25.1561 2.56025ZM16.4209 12.5431L25.1567 3.98995L23.7575 2.56087L15.0217 11.114L16.4209 12.5431ZM25.1566 19.6628L16.4207 11.1139L15.0219 12.5433L23.7577 21.0922L25.1566 19.6628ZM21.8052 24.3719L25.1566 21.0922L23.7577 19.6628L20.4064 22.9424L21.8052 24.3719ZM11.5292 15.6845L20.4064 24.3719L21.8052 22.9424L12.928 14.2551L11.5292 15.6845ZM4.05075 24.3719L12.928 15.6845L11.5292 14.2551L2.65191 22.9425L4.05075 24.3719ZM-0.69895 21.0969L2.65237 24.3723L4.0503 22.942L0.698971 19.6666L-0.69895 21.0969ZM8.03626 11.1141L-0.699585 19.6672L0.699607 21.0963L9.43545 12.5431L8.03626 11.1141ZM-0.699408 3.99436L8.03644 12.5433L9.43528 11.1139L0.699432 2.56494L-0.699408 3.99436ZM2.65192 -0.714689L-0.699408 2.56494L0.699432 3.99436L4.05076 0.714733L2.65192 -0.714689ZM12.928 7.97262L4.05076 -0.714689L2.65192 0.714733L11.5291 9.40204L12.928 7.97262Z" fill="#CFCFCF" mask="url(#path-1-inside-1)"/>
</svg>
