<svg width="34" height="34" viewBox="0 0 34 34" fill="none" xmlns="http://www.w3.org/2000/svg">
<path d="M33.1302 17C33.1302 26.0317 25.8562 33.3462 16.892 33.3462C7.92785 33.3462 0.653846 26.0317 0.653846 17C0.653846 7.96833 7.92785 0.653846 16.892 0.653846C25.8562 0.653846 33.1302 7.96833 33.1302 17Z" stroke="#DFDFDF" stroke-width="1.30769"/>
<path d="M10.2131 22.0851C11.8347 22.0851 13.2537 21.2869 14.0138 20.0327L12.2655 19.0192C11.8854 19.7033 11.1126 20.1087 10.2131 20.1087C8.64214 20.1087 7.62862 19.0572 7.62862 17.4736C7.62862 15.8899 8.64214 14.8384 10.2131 14.8384C11.1126 14.8384 11.8727 15.2438 12.2655 15.9279L14.0138 14.9144C13.241 13.6602 11.8221 12.862 10.2131 12.862C7.53994 12.862 5.60158 14.8637 5.60158 17.4736C5.60158 20.0834 7.53994 22.0851 10.2131 22.0851ZM18.0677 22.0851C19.9934 22.0851 21.3616 21.0716 21.3616 19.3612C21.3616 17.4862 19.854 17.0175 18.5111 16.6121C17.1302 16.194 16.9148 15.9153 16.9148 15.5099C16.9148 15.1551 17.2315 14.8384 17.865 14.8384C18.6758 14.8384 19.0939 15.2311 19.3979 15.8646L21.1083 14.8637C20.4621 13.5588 19.3219 12.862 17.865 12.862C16.332 12.862 14.8878 13.8502 14.8878 15.5605C14.8878 17.2582 16.18 17.8916 17.4976 18.259C18.8278 18.6264 19.3346 18.8418 19.3346 19.3866C19.3346 19.7286 19.0939 20.1087 18.131 20.1087C17.1302 20.1087 16.5854 19.6146 16.2687 18.8798L14.5204 19.8933C15.0145 21.1982 16.2053 22.0851 18.0677 22.0851ZM25.2311 22.0851C27.1568 22.0851 28.5251 21.0716 28.5251 19.3612C28.5251 17.4862 27.0175 17.0175 25.6746 16.6121C24.2936 16.194 24.0783 15.9153 24.0783 15.5099C24.0783 15.1551 24.395 14.8384 25.0284 14.8384C25.8392 14.8384 26.2573 15.2311 26.5614 15.8646L28.2717 14.8637C27.6256 13.5588 26.4854 12.862 25.0284 12.862C23.4955 12.862 22.0512 13.8502 22.0512 15.5605C22.0512 17.2582 23.3435 17.8916 24.661 18.259C25.9913 18.6264 26.498 18.8418 26.498 19.3866C26.498 19.7286 26.2573 20.1087 25.2945 20.1087C24.2936 20.1087 23.7489 19.6146 23.4321 18.8798L21.6838 19.8933C22.1779 21.1982 23.3688 22.0851 25.2311 22.0851Z" fill="#303030"/>
</svg>
