<svg width="35" height="34" viewBox="0 0 35 34" fill="none" xmlns="http://www.w3.org/2000/svg">
<circle cx="17.8462" cy="17" r="16.5" stroke="#303030"/>
<path d="M22.4642 12.6764L23.8656 10.0105C23.9575 9.83396 23.9248 9.69862 23.7671 9.60346C23.5959 9.52139 23.4644 9.56298 23.3724 9.72526L21.9515 12.4125C20.7012 11.8424 19.3787 11.5568 17.9842 11.5568C16.5894 11.5568 15.2668 11.8425 14.017 12.4125L12.596 9.72526C12.5036 9.56298 12.3721 9.52176 12.2013 9.60346C12.0432 9.69905 12.0105 9.83396 12.1029 10.0105L13.5043 12.6764C12.0833 13.4237 10.9515 14.4645 10.1094 15.801C9.26737 17.1382 8.84616 18.5995 8.84616 20.1875H27.1024C27.1024 18.5999 26.6811 17.1385 25.8391 15.801C24.997 14.4645 23.8718 13.4237 22.4642 12.6764ZM14.3622 16.554C14.2107 16.7106 14.0297 16.7886 13.8193 16.7886C13.6085 16.7886 13.4312 16.7106 13.2865 16.554C13.1418 16.3981 13.0695 16.2121 13.0695 15.9944C13.0695 15.7775 13.1418 15.5912 13.2865 15.4349C13.4312 15.279 13.6089 15.201 13.8193 15.201C14.0297 15.201 14.2107 15.279 14.3622 15.4349C14.5134 15.5915 14.5894 15.7775 14.5894 15.9944C14.589 16.2118 14.5131 16.3981 14.3622 16.554ZM22.6811 16.554C22.5362 16.7106 22.3584 16.7886 22.1484 16.7886C21.9375 16.7886 21.7566 16.7106 21.6053 16.554C21.4538 16.3981 21.3783 16.2121 21.3783 15.9944C21.3783 15.7775 21.4538 15.5912 21.6053 15.4349C21.7566 15.279 21.9375 15.201 22.1484 15.201C22.3588 15.201 22.5361 15.279 22.6811 15.4349C22.8259 15.5915 22.8981 15.7775 22.8981 15.9944C22.8981 16.2118 22.8259 16.3981 22.6811 16.554Z" fill="#717171"/>
</svg>
