<svg width="34" height="34" viewBox="0 0 34 34" fill="none" xmlns="http://www.w3.org/2000/svg">
<circle cx="17" cy="17" r="16.5" stroke="#303030"/>
<path d="M9.72044 13.6663C9.48395 13.9028 9.20101 14.0211 8.87162 14.0211C8.54222 14.0211 8.25506 13.9028 8.01012 13.6663C7.77363 13.4214 7.65539 13.1342 7.65539 12.8048C7.65539 12.4754 7.77363 12.1925 8.01012 11.956C8.25506 11.7195 8.54222 11.6013 8.87162 11.6013C9.20101 11.6013 9.48395 11.7195 9.72044 11.956C9.96538 12.1925 10.0878 12.4754 10.0878 12.8048C10.0878 13.1342 9.96538 13.4214 9.72044 13.6663ZM9.92315 20.875H7.82009V14.5405H9.92315V20.875ZM18.8259 19.7348C17.9222 20.6216 16.8242 21.065 15.532 21.065C14.2228 21.065 13.1206 20.6216 12.2253 19.7348C11.3301 18.8395 10.8824 17.7415 10.8824 16.4408C10.8824 15.1402 11.3301 14.0464 12.2253 13.1596C13.1206 12.2643 14.2228 11.8167 15.532 11.8167C16.8326 11.8167 17.9306 12.2643 18.8259 13.1596C19.7296 14.0464 20.1815 15.1402 20.1815 16.4408C20.1815 17.7331 19.7296 18.8311 18.8259 19.7348ZM13.8216 18.1765C14.2862 18.6241 14.8563 18.848 15.532 18.848C16.2076 18.848 16.7777 18.6241 17.2423 18.1765C17.6984 17.7204 17.9264 17.1419 17.9264 16.4408C17.9264 15.7314 17.6984 15.157 17.2423 14.7179C16.7862 14.2618 16.2161 14.0337 15.532 14.0337C14.8478 14.0337 14.2777 14.2618 13.8216 14.7179C13.3656 15.157 13.1375 15.7314 13.1375 16.4408C13.1375 17.1419 13.3656 17.7204 13.8216 18.1765ZM24.0417 21.065C23.1211 21.065 22.3483 20.8708 21.7232 20.4823C21.1067 20.0937 20.6717 19.5532 20.4183 18.8606L22.3567 17.7331C22.6861 18.5186 23.2689 18.9113 24.105 18.9113C24.7976 18.9113 25.1439 18.7128 25.1439 18.3159C25.1439 18.0625 24.9454 17.8513 24.5484 17.6824C24.4133 17.6317 24.0417 17.5177 23.4336 17.3403C22.5721 17.0954 21.9175 16.7533 21.4699 16.3142C21.0222 15.875 20.7984 15.2922 20.7984 14.5658C20.7984 13.7466 21.0898 13.0836 21.6726 12.5768C22.2722 12.07 23.007 11.8167 23.877 11.8167C24.6202 11.8167 25.279 11.994 25.8533 12.3488C26.4277 12.695 26.8669 13.1934 27.1709 13.8437L25.2706 14.9586C24.9919 14.2998 24.5315 13.9704 23.8896 13.9704C23.6278 13.9704 23.4251 14.0253 23.2815 14.1351C23.138 14.2364 23.0662 14.3758 23.0662 14.5532C23.0662 14.7474 23.1675 14.9121 23.3702 15.0473C23.5814 15.1824 23.9868 15.3386 24.5864 15.516C25.0341 15.6511 25.3804 15.7694 25.6253 15.8707C25.904 15.989 26.1912 16.1495 26.4868 16.3522C27.1034 16.7576 27.4116 17.4037 27.4116 18.2905C27.4116 19.1605 27.1034 19.8404 26.4868 20.3302C25.8702 20.8201 25.0552 21.065 24.0417 21.065Z" fill="#717171"/>
<a href="https://drive.google.com/drive/folders/1St7XAmi8VjxfX_9Y5fnG6YNbp9qwjhgG">
<rect fill="black" fill-opacity="0" y="-5.20607" width="20.3897" height="15.9883"/>
</a>
</svg>
