<svg width="35" height="34" viewBox="0 0 35 34" fill="none" xmlns="http://www.w3.org/2000/svg">
<circle cx="17.5" cy="17" r="16.5" stroke="#303030"/>
<path d="M12.5431 16.924L13.3793 13.478H15.609L13.6707 19.8125H11.6183L10.7061 16.5946L9.79395 19.8125H7.74157L5.80321 13.478H8.03296L8.86911 16.924L9.81929 13.478H11.593L12.5431 16.924ZM22.3162 17.4181H17.9454C18.1565 17.9333 18.6295 18.1909 19.3643 18.1909C19.8119 18.1909 20.1962 18.0431 20.5172 17.7475L22.0375 18.8116C21.4209 19.5971 20.513 19.9899 19.3136 19.9899C18.241 19.9899 17.3795 19.6774 16.7292 19.0524C16.0873 18.4189 15.7663 17.6208 15.7663 16.6579C15.7663 15.7035 16.083 14.9054 16.7165 14.2635C17.3499 13.6216 18.1565 13.3006 19.1363 13.3006C20.0822 13.3006 20.8635 13.6174 21.48 14.2508C22.0966 14.8758 22.4049 15.6697 22.4049 16.6326C22.4049 16.9282 22.3753 17.19 22.3162 17.4181ZM17.92 15.9611H20.3525C20.192 15.3699 19.7951 15.0743 19.1616 15.0743C18.5113 15.0743 18.0974 15.3699 17.92 15.9611ZM27.2101 13.3006C28.0547 13.3006 28.7599 13.6216 29.3258 14.2635C29.9001 14.9054 30.1873 15.6993 30.1873 16.6452C30.1873 17.5912 29.9001 18.3893 29.3258 19.0397C28.7515 19.6731 28.0462 19.9899 27.2101 19.9899C26.4415 19.9899 25.8418 19.7365 25.4111 19.2297V19.8125H23.308V10.9442H25.4111V14.0608C25.8418 13.554 26.4415 13.3006 27.2101 13.3006ZM25.7785 17.6461C26.0234 17.8995 26.3444 18.0262 26.7413 18.0262C27.1383 18.0262 27.4592 17.8995 27.7042 17.6461C27.9491 17.3843 28.0716 17.0507 28.0716 16.6452C28.0716 16.2398 27.9491 15.9062 27.7042 15.6444C27.4592 15.391 27.1383 15.2643 26.7413 15.2643C26.3444 15.2643 26.0234 15.391 25.7785 15.6444C25.5336 15.9062 25.4111 16.2398 25.4111 16.6452C25.4111 17.0507 25.5336 17.3843 25.7785 17.6461Z" fill="#717171"/>
</svg>
