<svg width="24" height="24" viewBox="0 0 24 24" fill="none" xmlns="http://www.w3.org/2000/svg">
<path d="M11.455 9.98549C10.036 10.4025 8.345 10.6175 6.388 10.6315C6.793 8.97749 7.906 7.60149 9.391 6.84749C10.168 7.86349 10.855 8.91049 11.455 9.98549ZM12.42 11.9155C12.296 11.6355 12.166 11.3565 12.029 11.0805C10.407 11.5905 8.468 11.8495 6.225 11.8525L6.217 12.0005C6.217 13.4045 6.721 14.6925 7.557 15.6955C8.823 13.7945 10.448 12.5315 12.42 11.9155ZM8.45 16.5565C10.019 17.7815 12.121 18.1455 14.074 17.3925C13.822 15.9045 13.424 14.4525 12.884 13.0405C11.065 13.5825 9.599 14.7545 8.45 16.5565ZM15.525 7.42649C14.548 6.67249 13.328 6.21749 12 6.21749C11.51 6.21749 11.036 6.28549 10.582 6.40149C11.346 7.42949 12.023 8.48749 12.617 9.57349C13.853 9.04949 14.821 8.33349 15.525 7.42649ZM24 12.0005C24 18.6275 18.627 24.0005 12 24.0005C5.373 24.0005 0 18.6275 0 12.0005C0 5.37349 5.373 0.000488281 12 0.000488281C18.627 0.000488281 24 5.37349 24 12.0005ZM19 12.0005C19 8.13449 15.865 5.00049 12 5.00049C8.135 5.00049 5 8.13449 5 12.0005C5 15.8665 8.135 19.0005 12 19.0005C15.865 19.0005 19 15.8665 19 12.0005ZM13.176 10.6515C13.333 10.9755 13.481 11.3025 13.623 11.6315C14.883 11.4145 16.264 11.4275 17.766 11.6735C17.693 10.3815 17.2 9.19949 16.412 8.27049C15.605 9.27549 14.522 10.0685 13.176 10.6515ZM14.09 12.7835C14.579 14.0925 14.955 15.4345 15.209 16.8065C16.521 15.9265 17.45 14.5225 17.706 12.8975C16.389 12.6695 15.184 12.6295 14.09 12.7835Z" fill="#303030"/>
</svg>
