<svg width="35" height="34" viewBox="0 0 35 34" fill="none" xmlns="http://www.w3.org/2000/svg">
<path d="M33.7386 17C33.7386 26.0317 26.4646 33.3462 17.5004 33.3462C8.53625 33.3462 1.26224 26.0317 1.26224 17C1.26224 7.96833 8.53625 0.653846 17.5004 0.653846C26.4646 0.653846 33.7386 7.96833 33.7386 17Z" stroke="#DFDFDF" stroke-width="1.30769"/>
<path d="M8.39798 13.4301V16.4756H5.89794V13.4301H4.07972V21.3848H5.89794V18.2256H8.39798V21.3848H10.2162V13.4301H8.39798ZM16.9226 13.4301H11.0134V15.1801H13.0589V21.3848H14.8772V15.1801H16.9226V13.4301ZM25.6732 13.4301H23.855L21.6959 16.9642L19.5368 13.4301H17.7186V21.3848H19.5368V16.7597L21.5936 20.1347H21.7982L23.855 16.7597V21.3848H25.6732V13.4301ZM28.8587 19.6347V13.4301H27.0405V21.3848H31.6996V19.6347H28.8587Z" fill="#717171"/>
</svg>
