<svg width="24" height="24" viewBox="0 0 24 24" fill="none" xmlns="http://www.w3.org/2000/svg">
<path d="M12 0.000488281C5.373 0.000488281 0 5.37349 0 12.0005C0 18.6275 5.373 24.0005 12 24.0005C18.627 24.0005 24 18.6275 24 12.0005C24 5.37349 18.627 0.000488281 12 0.000488281ZM10 16.0005H8V10.0005H10V16.0005ZM9 9.10949C8.393 9.10949 7.9 8.61349 7.9 8.00049C7.9 7.38849 8.392 6.89149 9 6.89149C9.608 6.89149 10.1 7.38849 10.1 8.00049C10.1 8.61349 9.607 9.10949 9 9.10949ZM17 16.0005H15.002V13.1395C15.002 11.2585 13 11.4175 13 13.1395V16.0005H11V10.0005H13V11.0935C13.872 9.47749 17 9.35749 17 12.6415V16.0005Z" fill="#303030"/>
</svg>
