<svg width="453" height="228" viewBox="0 0 453 228" fill="none" xmlns="http://www.w3.org/2000/svg">
<path d="M0 227.991V23.9309H82.8671L167.495 108.662L108.556 167.602L82.8671 141.913V227.991H0Z" fill="#303030"/>
<g filter="url(#filter0_i)">
<path d="M167.495 226.331L108.556 167.599L276.051 0L334.99 58.8356L167.495 226.331Z" fill="#EECC11"/>
</g>
<path d="M252.123 227.988V141.599L334.99 58.8358V227.988H252.123Z" fill="#303030"/>
<g filter="url(#filter1_i)">
<path d="M452.247 186.551C452.247 209.434 433.697 227.985 410.814 227.985C387.931 227.985 369.38 209.434 369.38 186.551C369.38 163.668 387.931 145.118 410.814 145.118C433.697 145.118 452.247 163.668 452.247 186.551Z" fill="#EECC11"/>
</g>
<defs>
<filter id="filter0_i" x="108.556" y="0" width="226.434" height="227.159" filterUnits="userSpaceOnUse" color-interpolation-filters="sRGB">
<feFlood flood-opacity="0" result="BackgroundImageFix"/>
<feBlend mode="normal" in="SourceGraphic" in2="BackgroundImageFix" result="shape"/>
<feColorMatrix in="SourceAlpha" type="matrix" values="0 0 0 0 0 0 0 0 0 0 0 0 0 0 0 0 0 0 127 0" result="hardAlpha"/>
<feOffset dy="0.828671"/>
<feGaussianBlur stdDeviation="2.07168"/>
<feComposite in2="hardAlpha" operator="arithmetic" k2="-1" k3="1"/>
<feColorMatrix type="matrix" values="0 0 0 0 0 0 0 0 0 0 0 0 0 0 0 0 0 0 0.25 0"/>
<feBlend mode="normal" in2="shape" result="effect1_innerShadow"/>
</filter>
<filter id="filter1_i" x="369.38" y="145.118" width="82.8671" height="83.6957" filterUnits="userSpaceOnUse" color-interpolation-filters="sRGB">
<feFlood flood-opacity="0" result="BackgroundImageFix"/>
<feBlend mode="normal" in="SourceGraphic" in2="BackgroundImageFix" result="shape"/>
<feColorMatrix in="SourceAlpha" type="matrix" values="0 0 0 0 0 0 0 0 0 0 0 0 0 0 0 0 0 0 127 0" result="hardAlpha"/>
<feOffset dy="0.828671"/>
<feGaussianBlur stdDeviation="2.07168"/>
<feComposite in2="hardAlpha" operator="arithmetic" k2="-1" k3="1"/>
<feColorMatrix type="matrix" values="0 0 0 0 0 0 0 0 0 0 0 0 0 0 0 0 0 0 0.25 0"/>
<feBlend mode="normal" in2="shape" result="effect1_innerShadow"/>
</filter>
</defs>
</svg>
