<svg width="15" height="14" viewBox="0 0 15 14" fill="none" xmlns="http://www.w3.org/2000/svg">
<path d="M13.9717 7.49363C13.8557 7.44555 13.7199 7.47949 13.6407 7.5785C12.6167 8.85148 11.0976 9.58133 9.471 9.58133C6.52051 9.58133 4.12164 7.18247 4.12164 4.23196C4.12164 2.82036 4.66761 1.48798 5.66054 0.48091C5.74823 0.390385 5.76804 0.254588 5.70579 0.144276C5.64357 0.0339464 5.51343 -0.0226342 5.3918 0.00847909C2.21783 0.792077 0 3.6266 0 6.89958C0 10.8147 3.18529 14 7.10042 14C10.6704 14 13.7001 11.3296 14.1414 7.79066C14.1584 7.66336 14.0877 7.54455 13.9717 7.49363V7.49363Z" fill="#303030"/>
</svg>
