<svg width="34" height="34" viewBox="0 0 34 34" fill="none" xmlns="http://www.w3.org/2000/svg">
<path d="M33.1302 17C33.1302 26.0317 25.8562 33.3462 16.892 33.3462C7.92785 33.3462 0.653846 26.0317 0.653846 17C0.653846 7.96833 7.92785 0.653846 16.892 0.653846C25.8562 0.653846 33.1302 7.96833 33.1302 17Z" stroke="#DFDFDF" stroke-width="1.30769"/>
<path fill-rule="evenodd" clip-rule="evenodd" d="M22.1257 14.0056C22.3223 14.0616 22.5174 14.1224 22.7109 14.1881C24.6742 14.8568 25.9429 15.9043 25.9429 16.9874C25.9429 18.117 24.5871 19.2214 22.5031 19.9045C22.3929 19.9407 22.2801 19.9754 22.165 20.009C22.2061 20.1723 22.2427 20.3327 22.274 20.4897C22.6855 22.5458 22.3686 24.2358 21.3936 24.7943C20.4495 25.335 18.9237 24.8038 17.3787 23.4885C17.2108 23.3451 17.0469 23.1972 16.8873 23.0448C16.7606 23.1661 16.6341 23.2817 16.508 23.3908C14.913 24.7702 13.275 25.3425 12.2991 24.7858C11.3542 24.2465 11.0572 22.6734 11.4374 20.6922C11.479 20.4768 11.5266 20.2627 11.5802 20.05C11.4151 20.0034 11.2512 19.9527 11.0887 19.898C9.08403 19.2201 7.76465 18.1021 7.76465 16.9874C7.76465 15.9082 8.99377 14.8677 10.9183 14.2038C11.1334 14.1296 11.3583 14.0599 11.5911 13.9945C11.5412 13.7971 11.4964 13.5984 11.4568 13.3988C11.058 11.3825 11.3386 9.77123 12.286 9.2286C13.274 8.66274 14.9194 9.27039 16.561 10.7126C16.6631 10.8025 16.7635 10.8942 16.8622 10.9878C17.0096 10.8471 17.1605 10.71 17.3148 10.5768C18.8812 9.2282 20.4321 8.66401 21.3804 9.20512C22.3694 9.76931 22.6591 11.4832 22.2161 13.6107C22.1884 13.7429 22.1583 13.8746 22.1257 14.0056ZM21.9536 19.2697C22.0575 19.2392 22.1595 19.2078 22.2589 19.1752H22.259C24.0582 18.5853 25.1664 17.6827 25.1664 16.9874C25.1664 16.3347 24.1404 15.4875 22.4581 14.9146C22.2842 14.8553 22.1037 14.7992 21.9178 14.7459C21.6941 15.4619 21.3956 16.2183 21.033 16.9912C21.4129 17.7828 21.7235 18.5491 21.9536 19.2697ZM21.5997 23.0128C21.7202 22.3702 21.6942 21.5482 21.5123 20.639C21.4839 20.4971 21.4509 20.3519 21.4139 20.2039C20.661 20.3761 19.8307 20.5022 18.9519 20.5794C18.4523 21.295 17.9404 21.9394 17.4281 22.4937C17.5812 22.6394 17.7338 22.7771 17.8853 22.906C19.2064 24.0309 20.4316 24.4574 21.0045 24.1293C21.2737 23.9751 21.4914 23.5902 21.5997 23.0128ZM12.6871 24.1201C12.9566 24.2738 13.4023 24.2682 13.962 24.0726H13.9621C14.5849 23.8549 15.2917 23.4222 15.997 22.8122C16.1151 22.7098 16.2305 22.6046 16.3434 22.4967C15.8125 21.933 15.2858 21.2894 14.7829 20.5892C13.902 20.5185 13.0778 20.4012 12.3332 20.2383C12.2834 20.4361 12.2391 20.6352 12.2005 20.8354C11.8754 22.5297 12.1137 23.7929 12.6871 24.1201ZM9.21971 18.0566C9.72148 18.4816 10.4535 18.8712 11.3399 19.1709C11.4883 19.2209 11.6379 19.2672 11.7887 19.3099C12.0183 18.5693 12.3209 17.7917 12.6857 17.0061C12.3256 16.2321 12.0272 15.4667 11.7997 14.7346C11.5892 14.7935 11.3806 14.8584 11.174 14.9294C9.52808 15.4971 8.54119 16.3325 8.54119 16.9874C8.54119 17.2952 8.76887 17.6745 9.21971 18.0566ZM12.6751 9.89356C12.1041 10.2206 11.8772 11.5237 12.2189 13.2512V13.2511C12.2558 13.4368 12.2975 13.6216 12.3438 13.8053C13.0962 13.6366 13.9146 13.5107 14.7696 13.4323C15.2681 12.7361 15.79 12.0973 16.3181 11.5362C16.2269 11.45 16.136 11.3667 16.0454 11.2871C14.628 10.0419 13.2833 9.54524 12.6751 9.89356ZM19.5074 14.2674C19.6982 14.5633 19.8825 14.8632 20.0602 15.1669C20.2408 15.4754 20.4151 15.7874 20.5831 16.1028C20.813 15.5703 21.0083 15.0508 21.1649 14.5541C20.6431 14.4362 20.0874 14.3399 19.5074 14.2674ZM17.9322 13.363C17.5794 12.8979 17.2207 12.4692 16.8625 12.0853C16.4987 12.4737 16.1369 12.9018 15.7837 13.3626C16.4995 13.3294 17.2165 13.3296 17.9322 13.363ZM13.1312 16.1023C13.2949 15.7883 13.466 15.4782 13.6443 15.1721C13.8229 14.8658 14.0087 14.5637 14.2016 14.266C13.6253 14.3372 13.0722 14.4311 12.5536 14.5459C12.7116 15.0498 12.9051 15.5716 13.1312 16.1023ZM12.5429 19.4971C13.0614 19.6088 13.6228 19.6979 14.2182 19.7636C14.0205 19.4603 13.8303 19.1523 13.6475 18.84C13.4683 18.5338 13.2965 18.2235 13.1321 17.9093C12.9011 18.4514 12.7034 18.9844 12.5429 19.4971ZM15.7903 20.6487C16.1488 21.1162 16.5159 21.5508 16.884 21.9438C17.2397 21.5562 17.5972 21.1209 17.9512 20.6449C17.5907 20.6609 17.2244 20.6691 16.8538 20.6691C16.4932 20.6691 16.1383 20.6622 15.7903 20.6487ZM21.2009 19.4639C21.0383 18.9598 20.8335 18.4296 20.5905 17.8817C20.4219 18.2032 20.2462 18.5209 20.0633 18.8346C19.8834 19.1433 19.6974 19.4485 19.5052 19.7499C20.1048 19.6787 20.6738 19.5829 21.2009 19.4639ZM18.5185 19.843C18.8244 19.3884 19.1152 18.9241 19.3906 18.4508H19.3907C19.6684 17.9749 19.9289 17.4893 20.1717 16.995C19.9264 16.5056 19.665 16.0243 19.3881 15.5518C19.1127 15.0806 18.8205 14.6191 18.5122 14.1682C17.9718 14.1274 17.4167 14.1061 16.8539 14.1061C16.2936 14.1061 15.7393 14.1273 15.1986 14.1677C14.8872 14.6193 14.5931 15.0824 14.3172 15.5561V15.5559C14.0412 16.0295 13.7833 16.5131 13.544 17.0059C13.7839 17.4985 14.0426 17.9819 14.3195 18.455C14.5978 18.9307 14.8942 19.3958 15.208 19.8494C15.7379 19.8833 16.2882 19.9008 16.8538 19.9008C17.4218 19.9008 17.9792 19.8811 18.5185 19.843ZM21.4556 13.4557C21.838 11.6188 21.6013 10.2181 20.9926 9.87072C20.4211 9.5446 19.1668 10.0009 17.8247 11.1565C17.6822 11.2795 17.5428 11.406 17.4067 11.5358C17.9262 12.0897 18.4438 12.7296 18.9433 13.4333C19.8007 13.5129 20.6197 13.6411 21.3738 13.8132C21.4033 13.6946 21.4305 13.5753 21.4556 13.4557Z" fill="#303030"/>
<path d="M16.8542 15.3813C17.7507 15.3813 18.4775 16.1004 18.4775 16.9874C18.4775 17.8745 17.7507 18.5936 16.8542 18.5936C15.9577 18.5936 15.231 17.8745 15.231 16.9874C15.231 16.1004 15.9577 15.3813 16.8542 15.3813" fill="#303030"/>
</svg>
