<svg width="34" height="34" viewBox="0 0 34 34" fill="none" xmlns="http://www.w3.org/2000/svg">
<path d="M33.284 17C33.284 26.1157 25.9421 33.5 16.892 33.5C7.84196 33.5 0.5 26.1157 0.5 17C0.5 7.88429 7.84196 0.5 16.892 0.5C25.9421 0.5 33.284 7.88429 33.284 17Z" stroke="#8F9596" stroke-opacity="0.3"/>
<path d="M16.2907 12.157V13.5886H13.9343V21H12.1606V13.5886H9.80417V12.157H16.2907ZM20.258 21.0887C19.6414 21.0887 19.084 20.9831 18.5857 20.772C18.0958 20.5608 17.7073 20.2568 17.4201 19.8598C17.133 19.4628 16.9852 18.9941 16.9767 18.4535H18.8771C18.9024 18.8167 19.0291 19.1039 19.2571 19.315C19.4936 19.5262 19.8146 19.6317 20.22 19.6317C20.6338 19.6317 20.959 19.5346 21.1955 19.3404C21.432 19.1377 21.5502 18.8758 21.5502 18.5549C21.5502 18.2931 21.47 18.0777 21.3095 17.9088C21.149 17.7398 20.9463 17.6089 20.7014 17.516C20.4649 17.4147 20.1355 17.3049 19.7132 17.1866C19.1389 17.0177 18.6701 16.853 18.307 16.6925C17.9522 16.5236 17.6439 16.2745 17.3821 15.9451C17.1287 15.6072 17.0021 15.1596 17.0021 14.6021C17.0021 14.0785 17.133 13.6224 17.3948 13.2339C17.6566 12.8454 18.024 12.5498 18.497 12.3471C18.97 12.1359 19.5105 12.0303 20.1186 12.0303C21.0308 12.0303 21.7698 12.2542 22.3357 12.7018C22.91 13.141 23.2268 13.7575 23.2859 14.5515H21.3349C21.318 14.2474 21.1871 13.9983 20.9421 13.804C20.7056 13.6013 20.3889 13.4999 19.9919 13.4999C19.6457 13.4999 19.3669 13.5886 19.1558 13.766C18.9531 13.9434 18.8517 14.201 18.8517 14.5388C18.8517 14.7753 18.9277 14.9738 19.0798 15.1342C19.2402 15.2863 19.4345 15.413 19.6625 15.5143C19.899 15.6072 20.2284 15.717 20.6507 15.8437C21.2251 16.0126 21.6938 16.1815 22.057 16.3505C22.4202 16.5194 22.7327 16.7728 22.9945 17.1106C23.2563 17.4485 23.3872 17.8919 23.3872 18.4409C23.3872 18.9138 23.2648 19.353 23.0198 19.7584C22.7749 20.1638 22.4159 20.489 21.943 20.734C21.47 20.9704 20.9083 21.0887 20.258 21.0887Z" fill="#717171"/>
</svg>
