<svg width="32" height="32" viewBox="0 0 32 32" fill="none" xmlns="http://www.w3.org/2000/svg">
<rect width="32" height="32" rx="16" fill="white"/>
<path d="M3 23V10.4695H8.08853L13.2852 15.6725L9.66597 19.2917L8.08853 17.7143V23H3Z" fill="#303030"/>
<path d="M18.4818 22.9998V17.695L23.5703 12.6129V22.9998H18.4818Z" fill="#303030"/>
<path d="M13.2851 22.898L9.66589 19.2915L19.9511 9L23.5703 12.6129L13.2851 22.898Z" fill="#303030"/>
<path d="M30.7705 20.4553C30.7705 21.8605 29.6314 22.9996 28.2263 22.9996C26.8211 22.9996 25.682 21.8605 25.682 20.4553C25.682 19.0502 26.8211 17.9111 28.2263 17.9111C29.6314 17.9111 30.7705 19.0502 30.7705 20.4553Z" fill="#303030"/>
</svg>
