<svg width="35" height="34" viewBox="0 0 35 34" fill="none" xmlns="http://www.w3.org/2000/svg">
<path d="M34.1236 17C34.1236 26.1157 26.7817 33.5 17.7316 33.5C8.68156 33.5 1.3396 26.1157 1.3396 17C1.3396 7.88429 8.68156 0.5 17.7316 0.5C26.7817 0.5 34.1236 7.88429 34.1236 17Z" stroke="#DFDFDF"/>
<path d="M22.1842 12.6764L23.6202 10.0105C23.7145 9.83396 23.6809 9.69862 23.5193 9.60346C23.3439 9.52139 23.2091 9.56298 23.1149 9.72526L21.6588 12.4125C20.3776 11.8424 19.0225 11.5568 17.5935 11.5568C16.1643 11.5568 14.809 11.8425 13.5283 12.4125L12.0722 9.72526C11.9776 9.56298 11.8428 9.52176 11.6678 9.60346C11.5058 9.69905 11.4723 9.83396 11.5669 10.0105L13.0029 12.6764C11.5468 13.4237 10.3871 14.4645 9.52423 15.801C8.66135 17.1382 8.22974 18.5995 8.22974 20.1875H26.937C26.937 18.5999 26.5053 17.1385 25.6425 15.801C24.7796 14.4645 23.6266 13.4237 22.1842 12.6764ZM13.8821 16.554C13.7268 16.7106 13.5413 16.7886 13.3257 16.7886C13.1097 16.7886 12.928 16.7106 12.7798 16.554C12.6315 16.3981 12.5574 16.2121 12.5574 15.9944C12.5574 15.7775 12.6315 15.5912 12.7798 15.4349C12.928 15.279 13.1101 15.201 13.3257 15.201C13.5413 15.201 13.7268 15.279 13.8821 15.4349C14.037 15.5915 14.1149 15.7775 14.1149 15.9944C14.1144 16.2118 14.0367 16.3981 13.8821 16.554ZM22.4065 16.554C22.258 16.7106 22.0759 16.7886 21.8606 16.7886C21.6445 16.7886 21.4591 16.7106 21.3041 16.554C21.1489 16.3981 21.0714 16.2121 21.0714 15.9944C21.0714 15.7775 21.1489 15.5912 21.3041 15.4349C21.4591 15.279 21.6445 15.201 21.8606 15.201C22.0762 15.201 22.2579 15.279 22.4065 15.4349C22.5549 15.5915 22.6289 15.7775 22.6289 15.9944C22.6289 16.2118 22.5548 16.3981 22.4065 16.554Z" fill="#303030"/>
</svg>
