<svg width="34" height="34" viewBox="0 0 34 34" fill="none" xmlns="http://www.w3.org/2000/svg">
<path d="M33.284 17C33.284 26.1157 25.9421 33.5 16.892 33.5C7.84196 33.5 0.5 26.1157 0.5 17C0.5 7.88429 7.84196 0.5 16.892 0.5C25.9421 0.5 33.284 7.88429 33.284 17Z" stroke="#8F9596" stroke-opacity="0.3"/>
<path d="M21.3446 12.6764L22.7806 10.0105C22.8749 9.83396 22.8413 9.69862 22.6797 9.60346C22.5043 9.52139 22.3695 9.56298 22.2753 9.72526L20.8192 12.4125C19.538 11.8424 18.1829 11.5568 16.7539 11.5568C15.3247 11.5568 13.9694 11.8425 12.6887 12.4125L11.2326 9.72526C11.138 9.56298 11.0032 9.52176 10.8282 9.60346C10.6662 9.69905 10.6327 9.83396 10.7273 10.0105L12.1633 12.6764C10.7072 13.4237 9.5475 14.4645 8.68463 15.801C7.82176 17.1382 7.39014 18.5995 7.39014 20.1875H26.0974C26.0974 18.5999 25.6657 17.1385 24.8029 15.801C23.94 14.4645 22.787 13.4237 21.3446 12.6764ZM13.0425 16.554C12.8872 16.7106 12.7017 16.7886 12.4861 16.7886C12.2701 16.7886 12.0884 16.7106 11.9402 16.554C11.7919 16.3981 11.7178 16.2121 11.7178 15.9944C11.7178 15.7775 11.7919 15.5912 11.9402 15.4349C12.0884 15.279 12.2705 15.201 12.4861 15.201C12.7017 15.201 12.8872 15.279 13.0425 15.4349C13.1974 15.5915 13.2753 15.7775 13.2753 15.9944C13.2748 16.2118 13.1971 16.3981 13.0425 16.554ZM21.5669 16.554C21.4184 16.7106 21.2363 16.7886 21.021 16.7886C20.8049 16.7886 20.6195 16.7106 20.4645 16.554C20.3093 16.3981 20.2318 16.2121 20.2318 15.9944C20.2318 15.7775 20.3093 15.5912 20.4645 15.4349C20.6195 15.279 20.8049 15.201 21.021 15.201C21.2366 15.201 21.4183 15.279 21.5669 15.4349C21.7153 15.5915 21.7893 15.7775 21.7893 15.9944C21.7893 16.2118 21.7152 16.3981 21.5669 16.554Z" fill="#717171"/>
</svg>
