<svg width="34" height="34" viewBox="0 0 34 34" fill="none" xmlns="http://www.w3.org/2000/svg">
<path d="M33.284 17C33.284 26.1157 25.9421 33.5 16.892 33.5C7.84196 33.5 0.5 26.1157 0.5 17C0.5 7.88429 7.84196 0.5 16.892 0.5C25.9421 0.5 33.284 7.88429 33.284 17Z" stroke="#8F9596" stroke-opacity="0.3"/>
<path d="M6.10831 17.122C6.10831 16.3612 6.27821 15.6816 6.61799 15.0833C6.96517 14.4776 7.43422 14.0085 8.02515 13.6761C8.62347 13.3363 9.29197 13.1664 10.0306 13.1664C10.8949 13.1664 11.652 13.388 12.302 13.8312C12.9521 14.2744 13.4063 14.8875 13.6649 15.6705H11.881C11.7037 15.3012 11.4526 15.0242 11.1276 14.8395C10.8099 14.6549 10.4406 14.5625 10.0196 14.5625C9.56897 14.5625 9.16639 14.6696 8.81183 14.8838C8.46466 15.0907 8.19135 15.3861 7.99191 15.7702C7.79986 16.1543 7.70383 16.6049 7.70383 17.122C7.70383 17.6317 7.79986 18.0823 7.99191 18.4738C8.19135 18.8579 8.46466 19.157 8.81183 19.3712C9.16639 19.5781 9.56897 19.6815 10.0196 19.6815C10.4406 19.6815 10.8099 19.5891 11.1276 19.4045C11.4526 19.2124 11.7037 18.9317 11.881 18.5624H13.6649C13.4063 19.3528 12.9521 19.9696 12.302 20.4128C11.6594 20.8486 10.9023 21.0665 10.0306 21.0665C9.29197 21.0665 8.62347 20.9003 8.02515 20.5679C7.43422 20.2281 6.96517 19.759 6.61799 19.1607C6.27821 18.5624 6.10831 17.8828 6.10831 17.122ZM17.6601 21.0776C17.1209 21.0776 16.6333 20.9852 16.1975 20.8006C15.7691 20.6159 15.4293 20.35 15.1782 20.0028C14.927 19.6556 14.7977 19.2457 14.7904 18.7729H16.4524C16.4745 19.0905 16.5853 19.3417 16.7848 19.5264C16.9916 19.711 17.2723 19.8034 17.6268 19.8034C17.9888 19.8034 18.2732 19.7184 18.48 19.5485C18.6868 19.3712 18.7902 19.1423 18.7902 18.8616C18.7902 18.6326 18.7201 18.4442 18.5797 18.2965C18.4394 18.1487 18.2621 18.0343 18.0479 17.953C17.8411 17.8644 17.553 17.7683 17.1836 17.6649C16.6813 17.5172 16.2714 17.3731 15.9538 17.2328C15.6435 17.0851 15.3739 16.8672 15.1449 16.5791C14.9233 16.2836 14.8125 15.8921 14.8125 15.4046C14.8125 14.9466 14.927 14.5477 15.156 14.208C15.385 13.8682 15.7063 13.6096 16.12 13.4324C16.5336 13.2477 17.0064 13.1554 17.5382 13.1554C18.336 13.1554 18.9823 13.3511 19.4772 13.7426C19.9795 14.1267 20.2565 14.6659 20.3082 15.3603H18.6019C18.5871 15.0944 18.4726 14.8765 18.2584 14.7066C18.0516 14.5293 17.7746 14.4406 17.4274 14.4406C17.1245 14.4406 16.8808 14.5182 16.6961 14.6733C16.5188 14.8284 16.4302 15.0537 16.4302 15.3492C16.4302 15.556 16.4967 15.7296 16.6296 15.87C16.77 16.0029 16.9399 16.1137 17.1393 16.2024C17.3461 16.2836 17.6342 16.3796 18.0036 16.4904C18.5059 16.6382 18.9158 16.7859 19.2334 16.9336C19.5511 17.0814 19.8244 17.303 20.0534 17.5984C20.2823 17.8939 20.3968 18.2817 20.3968 18.7618C20.3968 19.1755 20.2897 19.5596 20.0755 19.9142C19.8613 20.2687 19.5474 20.5531 19.1337 20.7673C18.7201 20.9741 18.2289 21.0776 17.6601 21.0776ZM24.412 21.0776C23.8727 21.0776 23.3852 20.9852 22.9494 20.8006C22.521 20.6159 22.1812 20.35 21.93 20.0028C21.6789 19.6556 21.5496 19.2457 21.5422 18.7729H23.2042C23.2264 19.0905 23.3372 19.3417 23.5366 19.5264C23.7435 19.711 24.0242 19.8034 24.3787 19.8034C24.7407 19.8034 25.025 19.7184 25.2319 19.5485C25.4387 19.3712 25.5421 19.1423 25.5421 18.8616C25.5421 18.6326 25.4719 18.4442 25.3316 18.2965C25.1912 18.1487 25.014 18.0343 24.7998 17.953C24.5929 17.8644 24.3048 17.7683 23.9355 17.6649C23.4332 17.5172 23.0233 17.3731 22.7056 17.2328C22.3954 17.0851 22.1258 16.8672 21.8968 16.5791C21.6752 16.2836 21.5644 15.8921 21.5644 15.4046C21.5644 14.9466 21.6789 14.5477 21.9079 14.208C22.1369 13.8682 22.4582 13.6096 22.8718 13.4324C23.2855 13.2477 23.7582 13.1554 24.2901 13.1554C25.0878 13.1554 25.7342 13.3511 26.2291 13.7426C26.7314 14.1267 27.0084 14.6659 27.0601 15.3603H25.3538C25.339 15.0944 25.2245 14.8765 25.0103 14.7066C24.8034 14.5293 24.5264 14.4406 24.1793 14.4406C23.8764 14.4406 23.6327 14.5182 23.448 14.6733C23.2707 14.8284 23.1821 15.0537 23.1821 15.3492C23.1821 15.556 23.2486 15.7296 23.3815 15.87C23.5219 16.0029 23.6918 16.1137 23.8912 16.2024C24.098 16.2836 24.3861 16.3796 24.7554 16.4904C25.2577 16.6382 25.6677 16.7859 25.9853 16.9336C26.3029 17.0814 26.5762 17.303 26.8052 17.5984C27.0342 17.8939 27.1487 18.2817 27.1487 18.7618C27.1487 19.1755 27.0416 19.5596 26.8274 19.9142C26.6132 20.2687 26.2992 20.5531 25.8856 20.7673C25.4719 20.9741 24.9807 21.0776 24.412 21.0776Z" fill="#717171"/>
</svg>
