<svg width="35" height="34" viewBox="0 0 35 34" fill="none" xmlns="http://www.w3.org/2000/svg">
<path d="M34.0609 17C34.0609 26.0317 26.7869 33.3462 17.8227 33.3462C8.85851 33.3462 1.58451 26.0317 1.58451 17C1.58451 7.96833 8.85851 0.653846 17.8227 0.653846C26.7869 0.653846 34.0609 7.96833 34.0609 17Z" stroke="#DFDFDF" stroke-width="1.30769"/>
<path d="M11.1438 22.0851C12.7654 22.0851 14.1843 21.2869 14.9445 20.0327L13.1961 19.0192C12.8161 19.7033 12.0433 20.1087 11.1438 20.1087C9.57281 20.1087 8.55929 19.0572 8.55929 17.4736C8.55929 15.8899 9.57281 14.8384 11.1438 14.8384C12.0433 14.8384 12.8034 15.2438 13.1961 15.9279L14.9445 14.9144C14.1717 13.6602 12.7527 12.862 11.1438 12.862C8.4706 12.862 6.53224 14.8637 6.53224 17.4736C6.53224 20.0834 8.4706 22.0851 11.1438 22.0851ZM18.9984 22.0851C20.9241 22.0851 22.2923 21.0716 22.2923 19.3612C22.2923 17.4862 20.7847 17.0175 19.4418 16.6121C18.0609 16.194 17.8455 15.9153 17.8455 15.5099C17.8455 15.1551 18.1622 14.8384 18.7957 14.8384C19.6065 14.8384 20.0246 15.2311 20.3286 15.8646L22.0389 14.8637C21.3928 13.5588 20.2526 12.862 18.7957 12.862C17.2627 12.862 15.8184 13.8502 15.8184 15.5605C15.8184 17.2582 17.1107 17.8916 18.4283 18.259C19.7585 18.6264 20.2653 18.8418 20.2653 19.3866C20.2653 19.7286 20.0246 20.1087 19.0617 20.1087C18.0609 20.1087 17.5161 19.6146 17.1994 18.8798L15.451 19.8933C15.9451 21.1982 17.136 22.0851 18.9984 22.0851ZM26.1618 22.0851C28.0875 22.0851 29.4557 21.0716 29.4557 19.3612C29.4557 17.4862 27.9481 17.0175 26.6052 16.6121C25.2243 16.194 25.0089 15.9153 25.0089 15.5099C25.0089 15.1551 25.3256 14.8384 25.9591 14.8384C26.7699 14.8384 27.188 15.2311 27.492 15.8646L29.2024 14.8637C28.5562 13.5588 27.416 12.862 25.9591 12.862C24.4261 12.862 22.9819 13.8502 22.9819 15.5605C22.9819 17.2582 24.2741 17.8916 25.5917 18.259C26.9219 18.6264 27.4287 18.8418 27.4287 19.3866C27.4287 19.7286 27.188 20.1087 26.2251 20.1087C25.2243 20.1087 24.6795 19.6146 24.3628 18.8798L22.6145 19.8933C23.1086 21.1982 24.2995 22.0851 26.1618 22.0851Z" fill="#717171"/>
</svg>
