<svg width="24" height="24" viewBox="0 0 24 24" fill="none" xmlns="http://www.w3.org/2000/svg">
<path d="M11.455 9.98537C10.036 10.4024 8.345 10.6174 6.388 10.6314C6.793 8.97737 7.906 7.60137 9.391 6.84737C10.168 7.86337 10.855 8.91037 11.455 9.98537ZM12.42 11.9154C12.296 11.6354 12.166 11.3564 12.029 11.0804C10.407 11.5904 8.468 11.8494 6.225 11.8524L6.217 12.0004C6.217 13.4044 6.721 14.6924 7.557 15.6954C8.823 13.7944 10.448 12.5314 12.42 11.9154ZM8.45 16.5564C10.019 17.7814 12.121 18.1454 14.074 17.3924C13.822 15.9044 13.424 14.4524 12.884 13.0404C11.065 13.5824 9.599 14.7544 8.45 16.5564ZM15.525 7.42637C14.548 6.67237 13.328 6.21737 12 6.21737C11.51 6.21737 11.036 6.28537 10.582 6.40137C11.346 7.42937 12.023 8.48737 12.617 9.57337C13.853 9.04937 14.821 8.33337 15.525 7.42637ZM24 12.0004C24 18.6274 18.627 24.0004 12 24.0004C5.373 24.0004 0 18.6274 0 12.0004C0 5.37337 5.373 0.000366211 12 0.000366211C18.627 0.000366211 24 5.37337 24 12.0004ZM19 12.0004C19 8.13437 15.865 5.00037 12 5.00037C8.135 5.00037 5 8.13437 5 12.0004C5 15.8664 8.135 19.0004 12 19.0004C15.865 19.0004 19 15.8664 19 12.0004ZM13.176 10.6514C13.333 10.9754 13.481 11.3024 13.623 11.6314C14.883 11.4144 16.264 11.4274 17.766 11.6734C17.693 10.3814 17.2 9.19937 16.412 8.27037C15.605 9.27537 14.522 10.0684 13.176 10.6514V10.6514ZM14.09 12.7834C14.579 14.0924 14.955 15.4344 15.209 16.8064C16.521 15.9264 17.45 14.5224 17.706 12.8974C16.389 12.6694 15.184 12.6294 14.09 12.7834V12.7834Z" fill="#CFCFCF"/>
</svg>
