<svg width="34" height="34" viewBox="0 0 34 34" fill="none" xmlns="http://www.w3.org/2000/svg">
<circle cx="17" cy="17" r="16.5" stroke="#CFCFCF"/>
<path d="M12.0431 16.924L12.8792 13.478H15.109L13.1706 19.8125H11.1182L10.2061 16.5946L9.29389 19.8125H7.24151L5.30315 13.478H7.5329L8.36905 16.924L9.31923 13.478H11.0929L12.0431 16.924ZM21.8161 17.4181H17.4453C17.6565 17.9333 18.1294 18.1909 18.8642 18.1909C19.3119 18.1909 19.6962 18.0431 20.0171 17.7475L21.5374 18.8116C20.9209 19.5971 20.0129 19.9899 18.8136 19.9899C17.7409 19.9899 16.8794 19.6774 16.2291 19.0524C15.5872 18.4189 15.2662 17.6208 15.2662 16.6579C15.2662 15.7035 15.583 14.9054 16.2164 14.2635C16.8499 13.6216 17.6565 13.3006 18.6362 13.3006C19.5822 13.3006 20.3634 13.6174 20.98 14.2508C21.5965 14.8758 21.9048 15.6697 21.9048 16.6326C21.9048 16.9282 21.8752 17.19 21.8161 17.4181ZM17.42 15.9611H19.8524C19.692 15.3699 19.295 15.0743 18.6615 15.0743C18.0112 15.0743 17.5973 15.3699 17.42 15.9611ZM26.71 13.3006C27.5546 13.3006 28.2599 13.6216 28.8258 14.2635C29.4001 14.9054 29.6872 15.6993 29.6872 16.6452C29.6872 17.5912 29.4001 18.3893 28.8258 19.0397C28.2514 19.6731 27.5462 19.9899 26.71 19.9899C25.9414 19.9899 25.3418 19.7365 24.911 19.2297V19.8125H22.808V10.9442H24.911V14.0608C25.3418 13.554 25.9414 13.3006 26.71 13.3006ZM25.2784 17.6461C25.5234 17.8995 25.8443 18.0262 26.2413 18.0262C26.6382 18.0262 26.9592 17.8995 27.2041 17.6461C27.4491 17.3843 27.5715 17.0507 27.5715 16.6452C27.5715 16.2398 27.4491 15.9062 27.2041 15.6444C26.9592 15.391 26.6382 15.2643 26.2413 15.2643C25.8443 15.2643 25.5234 15.391 25.2784 15.6444C25.0335 15.9062 24.911 16.2398 24.911 16.6452C24.911 17.0507 25.0335 17.3843 25.2784 17.6461Z" fill="#CFCFCF"/>
</svg>
