<svg width="12" height="11" viewBox="0 0 12 11" fill="none" xmlns="http://www.w3.org/2000/svg">
<g clip-path="url(#clip0)">
<path d="M5.97208 10.9445C8.99423 10.9445 11.4442 8.4946 11.4442 5.47245C11.4442 2.4503 8.99423 0.000366211 5.97208 0.000366211C2.94993 0.000366211 0.5 2.4503 0.5 5.47245C0.5 8.4946 2.94993 10.9445 5.97208 10.9445Z" fill="#CFCFCF"/>
<path d="M5.97209 9.82773C8.37747 9.82773 10.3274 7.87778 10.3274 5.4724C10.3274 3.06701 8.37747 1.11707 5.97209 1.11707C3.56671 1.11707 1.61676 3.06701 1.61676 5.4724C1.61676 7.87778 3.56671 9.82773 5.97209 9.82773Z" fill="#1B1C1E"/>
<path d="M5.97207 8.5435C7.66817 8.5435 9.04313 7.16854 9.04313 5.47243C9.04313 3.77633 7.66817 2.40137 5.97207 2.40137C4.27596 2.40137 2.901 3.77633 2.901 5.47243C2.901 7.16854 4.27596 8.5435 5.97207 8.5435Z" fill="#CFCFCF"/>
<path d="M5.97206 7.14762C6.89721 7.14762 7.64719 6.39764 7.64719 5.47249C7.64719 4.54734 6.89721 3.79736 5.97206 3.79736C5.04692 3.79736 4.29694 4.54734 4.29694 5.47249C4.29694 6.39764 5.04692 7.14762 5.97206 7.14762Z" fill="#1B1C1E"/>
<path d="M9.43402 4.74658H6.92133V6.14252H9.43402V4.74658Z" fill="#1B1C1E"/>
</g>
<defs>
<clipPath id="clip0">
<rect width="11" height="11" fill="white" transform="translate(0.5 0.000366211)"/>
</clipPath>
</defs>
</svg>
