<svg width="24" height="24" viewBox="0 0 24 24" fill="none" xmlns="http://www.w3.org/2000/svg">
<path d="M12 0.000366211C5.373 0.000366211 0 5.37337 0 12.0004C0 18.6274 5.373 24.0004 12 24.0004C18.627 24.0004 24 18.6274 24 12.0004C24 5.37337 18.627 0.000366211 12 0.000366211ZM10 16.0004H8V10.0004H10V16.0004ZM9 9.10937C8.393 9.10937 7.9 8.61337 7.9 8.00037C7.9 7.38837 8.392 6.89137 9 6.89137C9.608 6.89137 10.1 7.38837 10.1 8.00037C10.1 8.61337 9.607 9.10937 9 9.10937ZM17 16.0004H15.002V13.1394C15.002 11.2584 13 11.4174 13 13.1394V16.0004H11V10.0004H13V11.0934C13.872 9.47737 17 9.35737 17 12.6414V16.0004Z" fill="#CFCFCF"/>
</svg>
