<svg width="34" height="34" viewBox="0 0 34 34" fill="none" xmlns="http://www.w3.org/2000/svg">
<circle cx="17" cy="17" r="16.5" stroke="#CFCFCF"/>
<path d="M21.6181 12.6764L23.0194 10.0105C23.1114 9.83396 23.0787 9.69862 22.9209 9.60346C22.7497 9.52139 22.6182 9.56298 22.5263 9.72526L21.1053 12.4125C19.855 11.8424 18.5326 11.5568 17.138 11.5568C15.7432 11.5568 14.4207 11.8425 13.1708 12.4125L11.7498 9.72526C11.6575 9.56298 11.5259 9.52176 11.3551 9.60346C11.1971 9.69905 11.1643 9.83396 11.2567 10.0105L12.6581 12.6764C11.2371 13.4237 10.1053 14.4645 9.26328 15.801C8.42121 17.1382 8 18.5995 8 20.1875H26.2563C26.2563 18.5999 25.835 17.1385 24.993 15.801C24.1508 14.4645 23.0256 13.4237 21.6181 12.6764ZM13.5161 16.554C13.3645 16.7106 13.1835 16.7886 12.9731 16.7886C12.7623 16.7886 12.585 16.7106 12.4403 16.554C12.2957 16.3981 12.2233 16.2121 12.2233 15.9944C12.2233 15.7775 12.2957 15.5912 12.4403 15.4349C12.585 15.279 12.7627 15.201 12.9731 15.201C13.1835 15.201 13.3645 15.279 13.5161 15.4349C13.6673 15.5915 13.7432 15.7775 13.7432 15.9944C13.7428 16.2118 13.6669 16.3981 13.5161 16.554ZM21.835 16.554C21.69 16.7106 21.5123 16.7886 21.3022 16.7886C21.0914 16.7886 20.9104 16.7106 20.7592 16.554C20.6077 16.3981 20.5321 16.2121 20.5321 15.9944C20.5321 15.7775 20.6077 15.5912 20.7592 15.4349C20.9104 15.279 21.0914 15.201 21.3022 15.201C21.5126 15.201 21.69 15.279 21.835 15.4349C21.9798 15.5915 22.052 15.7775 22.052 15.9944C22.052 16.2118 21.9797 16.3981 21.835 16.554Z" fill="#CFCFCF"/>
</svg>
