<svg width="35" height="34" viewBox="0 0 35 34" fill="none" xmlns="http://www.w3.org/2000/svg">
<circle cx="17.1775" cy="17" r="16.5" stroke="#303030"/>
<path fill-rule="evenodd" clip-rule="evenodd" d="M22.3033 14.0056C22.4999 14.0616 22.695 14.1224 22.8885 14.1881C24.8518 14.8568 26.1205 15.9043 26.1205 16.9874C26.1205 18.117 24.7647 19.2214 22.6807 19.9045C22.5706 19.9407 22.4577 19.9754 22.3426 20.009C22.3837 20.1723 22.4203 20.3327 22.4516 20.4897C22.8631 22.5458 22.5463 24.2358 21.5712 24.7943C20.6271 25.335 19.1013 24.8038 17.5563 23.4885C17.3884 23.3451 17.2245 23.1972 17.0649 23.0448C16.9382 23.1661 16.8117 23.2817 16.6856 23.3908C15.0906 24.7702 13.4526 25.3425 12.4767 24.7858C11.5318 24.2465 11.2349 22.6734 11.6151 20.6922C11.6566 20.4768 11.7042 20.2627 11.7579 20.05C11.5928 20.0034 11.4289 19.9527 11.2663 19.898C9.26165 19.2201 7.94226 18.1021 7.94226 16.9874C7.94226 15.9082 9.17138 14.8677 11.0959 14.2038C11.311 14.1296 11.5359 14.0599 11.7687 13.9945C11.7188 13.7971 11.674 13.5984 11.6344 13.3988C11.2356 11.3825 11.5162 9.77123 12.4636 9.2286C13.4516 8.66274 15.097 9.27039 16.7386 10.7126C16.8407 10.8025 16.9412 10.8942 17.0398 10.9878C17.1872 10.8471 17.3381 10.71 17.4924 10.5768C19.0588 9.2282 20.6097 8.66401 21.558 9.20512C22.5471 9.76931 22.8367 11.4832 22.3937 13.6107C22.366 13.7429 22.3359 13.8746 22.3033 14.0056ZM22.1312 19.2697C22.2351 19.2392 22.3371 19.2078 22.4365 19.1752H22.4366C24.2358 18.5853 25.344 17.6827 25.344 16.9874C25.344 16.3347 24.318 15.4875 22.6358 14.9146C22.4618 14.8553 22.2813 14.7992 22.0954 14.7459C21.8717 15.4619 21.5733 16.2183 21.2107 16.9912C21.5905 17.7828 21.9011 18.5491 22.1312 19.2697ZM21.7773 23.0128C21.8978 22.3702 21.8718 21.5482 21.6899 20.639C21.6615 20.4971 21.6285 20.3519 21.5915 20.2039C20.8386 20.3761 20.0083 20.5022 19.1295 20.5794C18.6299 21.295 18.118 21.9394 17.6058 22.4937C17.7588 22.6394 17.9114 22.7771 18.0629 22.906C19.384 24.0309 20.6092 24.4574 21.1821 24.1293C21.4513 23.9751 21.669 23.5902 21.7773 23.0128ZM12.8647 24.1201C13.1342 24.2738 13.5799 24.2682 14.1396 24.0726H14.1397C14.7626 23.8549 15.4693 23.4222 16.1746 22.8122C16.2927 22.7098 16.4082 22.6046 16.521 22.4967C15.9902 21.933 15.4634 21.2894 14.9606 20.5892C14.0796 20.5185 13.2554 20.4012 12.5108 20.2383C12.461 20.4361 12.4168 20.6352 12.3781 20.8354C12.053 22.5297 12.2913 23.7929 12.8647 24.1201ZM9.39732 18.0566C9.89909 18.4816 10.6311 18.8712 11.5175 19.1709C11.6659 19.2209 11.8156 19.2672 11.9663 19.3099C12.1959 18.5693 12.4985 17.7917 12.8633 17.0061C12.5032 16.2321 12.2048 15.4667 11.9773 14.7346C11.7669 14.7935 11.5582 14.8584 11.3516 14.9294C9.70569 15.4971 8.71881 16.3325 8.71881 16.9874C8.71881 17.2952 8.94648 17.6745 9.39732 18.0566ZM12.8527 9.89356C12.2817 10.2206 12.0548 11.5237 12.3965 13.2512V13.2511C12.4334 13.4368 12.4751 13.6216 12.5215 13.8053C13.2738 13.6366 14.0922 13.5107 14.9472 13.4323C15.4457 12.7361 15.9676 12.0973 16.4957 11.5362C16.4046 11.45 16.3136 11.3667 16.223 11.2871C14.8056 10.0419 13.4609 9.54524 12.8527 9.89356ZM19.685 14.2674C19.8758 14.5633 20.0601 14.8632 20.2378 15.1669C20.4184 15.4754 20.5927 15.7874 20.7607 16.1028C20.9906 15.5703 21.1859 15.0508 21.3425 14.5541C20.8207 14.4362 20.265 14.3399 19.685 14.2674ZM18.1099 13.363C17.757 12.8979 17.3983 12.4692 17.0401 12.0853C16.6763 12.4737 16.3145 12.9018 15.9614 13.3626C16.6771 13.3294 17.3941 13.3296 18.1099 13.363ZM13.3088 16.1023C13.4725 15.7883 13.6436 15.4782 13.8219 15.1721C14.0005 14.8658 14.1863 14.5637 14.3792 14.266C13.8029 14.3372 13.2499 14.4311 12.7312 14.5459C12.8892 15.0498 13.0827 15.5716 13.3088 16.1023ZM12.7205 19.4971C13.239 19.6088 13.8005 19.6979 14.3958 19.7636C14.1982 19.4603 14.0079 19.1523 13.8251 18.84C13.6459 18.5338 13.4741 18.2235 13.3097 17.9093C13.0787 18.4514 12.881 18.9844 12.7205 19.4971ZM15.9679 20.6487C16.3264 21.1162 16.6935 21.5508 17.0616 21.9438C17.4173 21.5562 17.7748 21.1209 18.1288 20.6449C17.7683 20.6609 17.402 20.6691 17.0314 20.6691C16.6708 20.6691 16.3159 20.6622 15.9679 20.6487ZM21.3786 19.4639C21.2159 18.9598 21.0111 18.4296 20.7681 17.8817C20.5995 18.2032 20.4238 18.5209 20.2409 18.8346C20.061 19.1433 19.875 19.4485 19.6828 19.7499C20.2824 19.6787 20.8514 19.5829 21.3786 19.4639ZM18.6961 19.843C19.002 19.3884 19.2928 18.9241 19.5682 18.4508H19.5683C19.846 17.9749 20.1065 17.4893 20.3494 16.995C20.104 16.5056 19.8427 16.0243 19.5657 15.5518C19.2903 15.0806 18.9981 14.6191 18.6898 14.1682C18.1494 14.1274 17.5943 14.1061 17.0315 14.1061C16.4712 14.1061 15.9169 14.1273 15.3762 14.1677C15.0648 14.6193 14.7708 15.0824 14.4948 15.5561V15.5559C14.2188 16.0295 13.9609 16.5131 13.7216 17.0059C13.9615 17.4985 14.2202 17.9819 14.4972 18.455C14.7754 18.9307 15.0718 19.3958 15.3856 19.8494C15.9155 19.8833 16.4658 19.9008 17.0314 19.9008C17.5994 19.9008 18.1568 19.8811 18.6961 19.843ZM21.6332 13.4557C22.0156 11.6188 21.7789 10.2181 21.1702 9.87072C20.5987 9.5446 19.3444 10.0009 18.0023 11.1565C17.8598 11.2795 17.7204 11.406 17.5843 11.5358C18.1038 12.0897 18.6214 12.7296 19.1209 13.4333C19.9783 13.5129 20.7973 13.6411 21.5514 13.8132C21.5809 13.6946 21.6081 13.5753 21.6332 13.4557Z" fill="#717171"/>
<path d="M17.0313 15.3813C17.9279 15.3813 18.6546 16.1004 18.6546 16.9874C18.6546 17.8745 17.9279 18.5936 17.0313 18.5936C16.1349 18.5936 15.4081 17.8745 15.4081 16.9874C15.4081 16.1004 16.1349 15.3813 17.0313 15.3813" fill="#717171"/>
</svg>
