<svg width="34" height="34" viewBox="0 0 34 34" fill="none" xmlns="http://www.w3.org/2000/svg">
<circle cx="17" cy="17" r="16.5" stroke="#CFCFCF"/>
<path d="M10.1759 21.0978C8.84146 21.0978 7.73504 20.6586 6.85665 19.7802C5.98671 18.9018 5.55174 17.7996 5.55174 16.4736C5.55174 15.1475 5.98671 14.0496 6.85665 13.1796C7.72659 12.2928 8.83302 11.8494 10.1759 11.8494C10.9783 11.8494 11.7216 12.0394 12.4057 12.4195C13.0898 12.7995 13.6261 13.3105 14.0146 13.9524L12.0509 15.08C11.882 14.7675 11.6286 14.5225 11.2908 14.3452C10.9614 14.1594 10.5898 14.0664 10.1759 14.0664C9.47491 14.0664 8.90058 14.2903 8.45295 14.7379C8.0222 15.1855 7.80683 15.7641 7.80683 16.4736C7.80683 17.1999 8.0222 17.7827 8.45295 18.2219C8.89214 18.6611 9.46647 18.8807 10.1759 18.8807C10.5898 18.8807 10.9614 18.792 11.2908 18.6146C11.6286 18.4288 11.882 18.1754 12.0509 17.8545L14.0146 18.9947C13.6261 19.645 13.0898 20.1602 12.4057 20.5403C11.73 20.9119 10.9867 21.0978 10.1759 21.0978ZM18.0305 21.0978C17.1099 21.0978 16.3371 20.9035 15.7121 20.515C15.0955 20.1265 14.6606 19.5859 14.4072 18.8933L16.3455 17.7658C16.6749 18.5513 17.2577 18.944 18.0939 18.944C18.7864 18.944 19.1327 18.7455 19.1327 18.3486C19.1327 18.0952 18.9343 17.884 18.5373 17.7151C18.4022 17.6644 18.0305 17.5504 17.4224 17.3731C16.5609 17.1281 15.9064 16.7861 15.4587 16.3469C15.0111 15.9077 14.7873 15.3249 14.7873 14.5985C14.7873 13.7793 15.0786 13.1163 15.6614 12.6095C16.2611 12.1027 16.9959 11.8494 17.8658 11.8494C18.6091 11.8494 19.2679 12.0267 19.8422 12.3815C20.4165 12.7278 20.8557 13.2261 21.1598 13.8764L19.2594 14.9913C18.9807 14.3325 18.5204 14.0031 17.8785 14.0031C17.6167 14.0031 17.414 14.058 17.2704 14.1678C17.1268 14.2691 17.055 14.4085 17.055 14.5859C17.055 14.7801 17.1564 14.9448 17.3591 15.08C17.5702 15.2151 17.9756 15.3714 18.5753 15.5487C19.0229 15.6839 19.3692 15.8021 19.6142 15.9035C19.8929 16.0217 20.18 16.1822 20.4756 16.3849C21.0922 16.7903 21.4005 17.4364 21.4005 18.3232C21.4005 19.1932 21.0922 19.8731 20.4756 20.3629C19.8591 20.8528 19.044 21.0978 18.0305 21.0978ZM25.2435 21.0978C24.3228 21.0978 23.55 20.9035 22.925 20.515C22.3085 20.1265 21.8735 19.5859 21.6201 18.8933L23.5585 17.7658C23.8879 18.5513 24.4706 18.944 25.3068 18.944C25.9994 18.944 26.3457 18.7455 26.3457 18.3486C26.3457 18.0952 26.1472 17.884 25.7502 17.7151C25.6151 17.6644 25.2435 17.5504 24.6353 17.3731C23.7738 17.1281 23.1193 16.7861 22.6716 16.3469C22.224 15.9077 22.0002 15.3249 22.0002 14.5985C22.0002 13.7793 22.2916 13.1163 22.8743 12.6095C23.474 12.1027 24.2088 11.8494 25.0788 11.8494C25.822 11.8494 26.4808 12.0267 27.0551 12.3815C27.6295 12.7278 28.0686 13.2261 28.3727 13.8764L26.4723 14.9913C26.1936 14.3325 25.7333 14.0031 25.0914 14.0031C24.8296 14.0031 24.6269 14.058 24.4833 14.1678C24.3397 14.2691 24.2679 14.4085 24.2679 14.5859C24.2679 14.7801 24.3693 14.9448 24.572 15.08C24.7831 15.2151 25.1886 15.3714 25.7882 15.5487C26.2359 15.6839 26.5821 15.8021 26.8271 15.9035C27.1058 16.0217 27.393 16.1822 27.6886 16.3849C28.3051 16.7903 28.6134 17.4364 28.6134 18.3232C28.6134 19.1932 28.3051 19.8731 27.6886 20.3629C27.072 20.8528 26.257 21.0978 25.2435 21.0978Z" fill="#CFCFCF"/>
</svg>
