<svg width="35" height="34" viewBox="0 0 35 34" fill="none" xmlns="http://www.w3.org/2000/svg">
<circle cx="17.0769" cy="17" r="16.5" stroke="#303030"/>
<path d="M10.2528 21.0978C8.91834 21.0978 7.81191 20.6586 6.93352 19.7802C6.06358 18.9018 5.62861 17.7996 5.62861 16.4736C5.62861 15.1475 6.06358 14.0496 6.93352 13.1796C7.80346 12.2928 8.90989 11.8494 10.2528 11.8494C11.0552 11.8494 11.7984 12.0394 12.4826 12.4195C13.1667 12.7995 13.703 13.3105 14.0915 13.9524L12.1278 15.08C11.9589 14.7675 11.7055 14.5225 11.3677 14.3452C11.0383 14.1594 10.6667 14.0664 10.2528 14.0664C9.55179 14.0664 8.97746 14.2903 8.52982 14.7379C8.09907 15.1855 7.8837 15.7641 7.8837 16.4736C7.8837 17.1999 8.09907 17.7827 8.52982 18.2219C8.96901 18.6611 9.54334 18.8807 10.2528 18.8807C10.6667 18.8807 11.0383 18.792 11.3677 18.6146C11.7055 18.4288 11.9589 18.1754 12.1278 17.8545L14.0915 18.9947C13.703 19.645 13.1667 20.1602 12.4826 20.5403C11.8069 20.9119 11.0636 21.0978 10.2528 21.0978ZM18.1074 21.0978C17.1868 21.0978 16.414 20.9035 15.789 20.515C15.1724 20.1265 14.7374 19.5859 14.4841 18.8933L16.4224 17.7658C16.7518 18.5513 17.3346 18.944 18.1707 18.944C18.8633 18.944 19.2096 18.7455 19.2096 18.3486C19.2096 18.0952 19.0111 17.884 18.6142 17.7151C18.479 17.6644 18.1074 17.5504 17.4993 17.3731C16.6378 17.1281 15.9832 16.7861 15.5356 16.3469C15.088 15.9077 14.8641 15.3249 14.8641 14.5985C14.8641 13.7793 15.1555 13.1163 15.7383 12.6095C16.338 12.1027 17.0728 11.8494 17.9427 11.8494C18.686 11.8494 19.3447 12.0267 19.9191 12.3815C20.4934 12.7278 20.9326 13.2261 21.2366 13.8764L19.3363 14.9913C19.0576 14.3325 18.5973 14.0031 17.9554 14.0031C17.6935 14.0031 17.4908 14.058 17.3473 14.1678C17.2037 14.2691 17.1319 14.4085 17.1319 14.5859C17.1319 14.7801 17.2332 14.9448 17.4359 15.08C17.6471 15.2151 18.0525 15.3714 18.6522 15.5487C19.0998 15.6839 19.4461 15.8021 19.691 15.9035C19.9697 16.0217 20.2569 16.1822 20.5525 16.3849C21.1691 16.7903 21.4774 17.4364 21.4774 18.3232C21.4774 19.1932 21.1691 19.8731 20.5525 20.3629C19.936 20.8528 19.1209 21.0978 18.1074 21.0978ZM25.3203 21.0978C24.3997 21.0978 23.6269 20.9035 23.0019 20.515C22.3853 20.1265 21.9504 19.5859 21.697 18.8933L23.6353 17.7658C23.9647 18.5513 24.5475 18.944 25.3837 18.944C26.0762 18.944 26.4225 18.7455 26.4225 18.3486C26.4225 18.0952 26.2241 17.884 25.8271 17.7151C25.692 17.6644 25.3203 17.5504 24.7122 17.3731C23.8507 17.1281 23.1962 16.7861 22.7485 16.3469C22.3009 15.9077 22.0771 15.3249 22.0771 14.5985C22.0771 13.7793 22.3684 13.1163 22.9512 12.6095C23.5509 12.1027 24.2857 11.8494 25.1556 11.8494C25.8989 11.8494 26.5577 12.0267 27.132 12.3815C27.7063 12.7278 28.1455 13.2261 28.4496 13.8764L26.5492 14.9913C26.2705 14.3325 25.8102 14.0031 25.1683 14.0031C24.9065 14.0031 24.7038 14.058 24.5602 14.1678C24.4166 14.2691 24.3448 14.4085 24.3448 14.5859C24.3448 14.7801 24.4462 14.9448 24.6489 15.08C24.86 15.2151 25.2654 15.3714 25.8651 15.5487C26.3127 15.6839 26.659 15.8021 26.904 15.9035C27.1827 16.0217 27.4698 16.1822 27.7654 16.3849C28.382 16.7903 28.6903 17.4364 28.6903 18.3232C28.6903 19.1932 28.382 19.8731 27.7654 20.3629C27.1489 20.8528 26.3338 21.0978 25.3203 21.0978Z" fill="#717171"/>
</svg>
