<svg width="34" height="34" viewBox="0 0 34 34" fill="none" xmlns="http://www.w3.org/2000/svg">
<circle cx="17" cy="17" r="16.5" stroke="#CFCFCF"/>
<path d="M13.0583 21.0978C11.614 21.0978 10.5921 20.5065 9.99241 19.3241L11.9308 18.1965C12.0575 18.4499 12.2053 18.6315 12.3742 18.7413C12.5516 18.8427 12.7796 18.8933 13.0583 18.8933C13.7087 18.8933 14.0338 18.5935 14.0338 17.9938V12.0394H16.3016V18.0318C16.3016 18.9947 16.006 19.7464 15.4148 20.2869C14.8404 20.8275 14.0549 21.0978 13.0583 21.0978ZM20.7647 21.0978C19.8441 21.0978 19.0713 20.9035 18.4463 20.515C17.8298 20.1265 17.3948 19.5859 17.1414 18.8933L19.0798 17.7658C19.4092 18.5513 19.9919 18.944 20.8281 18.944C21.5207 18.944 21.8669 18.7455 21.8669 18.3486C21.8669 18.0952 21.6685 17.884 21.2715 17.7151C21.1364 17.6644 20.7647 17.5504 20.1566 17.3731C19.2951 17.1281 18.6406 16.7861 18.1929 16.3469C17.7453 15.9077 17.5215 15.3249 17.5215 14.5985C17.5215 13.7793 17.8129 13.1163 18.3956 12.6095C18.9953 12.1027 19.7301 11.8494 20.6 11.8494C21.3433 11.8494 22.0021 12.0267 22.5764 12.3815C23.1507 12.7278 23.5899 13.2261 23.894 13.8764L21.9936 14.9913C21.7149 14.3325 21.2546 14.0031 20.6127 14.0031C20.3509 14.0031 20.1482 14.058 20.0046 14.1678C19.861 14.2691 19.7892 14.4085 19.7892 14.5859C19.7892 14.7801 19.8906 14.9448 20.0933 15.08C20.3044 15.2151 20.7098 15.3714 21.3095 15.5487C21.7571 15.6839 22.1034 15.8021 22.3484 15.9035C22.6271 16.0217 22.9142 16.1822 23.2099 16.3849C23.8264 16.7903 24.1347 17.4364 24.1347 18.3232C24.1347 19.1932 23.8264 19.8731 23.2099 20.3629C22.5933 20.8528 21.7783 21.0978 20.7647 21.0978Z" fill="#CFCFCF"/>
</svg>
