<svg width="34" height="34" viewBox="0 0 34 34" fill="none" xmlns="http://www.w3.org/2000/svg">
<circle cx="17" cy="17" r="16.5" stroke="#CFCFCF"/>
<path fill-rule="evenodd" clip-rule="evenodd" d="M22.1258 14.0056C22.3224 14.0616 22.5175 14.1224 22.711 14.1881C24.6743 14.8568 25.943 15.9043 25.943 16.9874C25.943 18.117 24.5872 19.2214 22.5032 19.9045C22.3931 19.9407 22.2802 19.9754 22.1651 20.009C22.2062 20.1723 22.2428 20.3327 22.2742 20.4897C22.6856 22.5458 22.3688 24.2358 21.3937 24.7943C20.4496 25.335 18.9238 24.8038 17.3788 23.4885C17.2109 23.3451 17.047 23.1972 16.8874 23.0448C16.7607 23.1661 16.6342 23.2817 16.5081 23.3908C14.9131 24.7702 13.2751 25.3425 12.2992 24.7858C11.3543 24.2465 11.0574 22.6734 11.4376 20.6922C11.4791 20.4768 11.5267 20.2627 11.5804 20.05C11.4153 20.0034 11.2514 19.9527 11.0888 19.898C9.08416 19.2201 7.76477 18.1021 7.76477 16.9874C7.76477 15.9082 8.99389 14.8677 10.9184 14.2038C11.1335 14.1296 11.3584 14.0599 11.5912 13.9945C11.5414 13.7971 11.4966 13.5984 11.4569 13.3988C11.0581 11.3825 11.3387 9.77123 12.2861 9.2286C13.2741 8.66274 14.9195 9.27039 16.5611 10.7126C16.6632 10.8025 16.7637 10.8942 16.8623 10.9878C17.0097 10.8471 17.1606 10.71 17.315 10.5768C18.8813 9.2282 20.4322 8.66401 21.3805 9.20512C22.3696 9.76931 22.6592 11.4832 22.2162 13.6107C22.1886 13.7429 22.1584 13.8746 22.1258 14.0056ZM21.9537 19.2697C22.0576 19.2392 22.1596 19.2078 22.259 19.1752H22.2591C24.0583 18.5853 25.1665 17.6827 25.1665 16.9874C25.1665 16.3347 24.1405 15.4875 22.4583 14.9146C22.2843 14.8553 22.1038 14.7992 21.9179 14.7459C21.6942 15.4619 21.3958 16.2183 21.0332 16.9912C21.4131 17.7828 21.7236 18.5491 21.9537 19.2697ZM21.5998 23.0128C21.7203 22.3702 21.6943 21.5482 21.5124 20.639C21.484 20.4971 21.451 20.3519 21.414 20.2039C20.6611 20.3761 19.8308 20.5022 18.952 20.5794C18.4524 21.295 17.9405 21.9394 17.4283 22.4937C17.5813 22.6394 17.7339 22.7771 17.8854 22.906C19.2065 24.0309 20.4317 24.4574 21.0046 24.1293C21.2738 23.9751 21.4915 23.5902 21.5998 23.0128ZM12.6872 24.1201C12.9567 24.2738 13.4025 24.2682 13.9621 24.0726H13.9622C14.5851 23.8549 15.2918 23.4222 15.9971 22.8122C16.1152 22.7098 16.2307 22.6046 16.3435 22.4967C15.8127 21.933 15.286 21.2894 14.7831 20.5892C13.9021 20.5185 13.0779 20.4012 12.3333 20.2383C12.2835 20.4361 12.2393 20.6352 12.2006 20.8354C11.8755 22.5297 12.1138 23.7929 12.6872 24.1201ZM9.21983 18.0566C9.7216 18.4816 10.4536 18.8712 11.34 19.1709C11.4884 19.2209 11.6381 19.2672 11.7888 19.3099C12.0184 18.5693 12.321 17.7917 12.6858 17.0061C12.3257 16.2321 12.0273 15.4667 11.7998 14.7346C11.5894 14.7935 11.3807 14.8584 11.1741 14.9294C9.5282 15.4971 8.54132 16.3325 8.54132 16.9874C8.54132 17.2952 8.76899 17.6745 9.21983 18.0566ZM12.6752 9.89356C12.1042 10.2206 11.8774 11.5237 12.219 13.2512V13.2511C12.256 13.4368 12.2976 13.6216 12.344 13.8053C13.0963 13.6366 13.9148 13.5107 14.7697 13.4323C15.2683 12.7361 15.7901 12.0973 16.3182 11.5362C16.2271 11.45 16.1361 11.3667 16.0455 11.2871C14.6281 10.0419 13.2834 9.54524 12.6752 9.89356ZM19.5075 14.2674C19.6983 14.5633 19.8826 14.8632 20.0603 15.1669C20.2409 15.4754 20.4152 15.7874 20.5832 16.1028C20.8131 15.5703 21.0084 15.0508 21.165 14.5541C20.6432 14.4362 20.0876 14.3399 19.5075 14.2674ZM17.9324 13.363C17.5795 12.8979 17.2208 12.4692 16.8626 12.0853C16.4988 12.4737 16.137 12.9018 15.7839 13.3626C16.4996 13.3294 17.2166 13.3296 17.9324 13.363ZM13.1313 16.1023C13.295 15.7883 13.4661 15.4782 13.6444 15.1721C13.823 14.8658 14.0088 14.5637 14.2017 14.266C13.6255 14.3372 13.0724 14.4311 12.5537 14.5459C12.7117 15.0498 12.9052 15.5716 13.1313 16.1023ZM12.543 19.4971C13.0615 19.6088 13.623 19.6979 14.2183 19.7636C14.0207 19.4603 13.8304 19.1523 13.6476 18.84C13.4684 18.5338 13.2966 18.2235 13.1322 17.9093C12.9012 18.4514 12.7035 18.9844 12.543 19.4971ZM15.7904 20.6487C16.1489 21.1162 16.516 21.5508 16.8841 21.9438C17.2399 21.5562 17.5973 21.1209 17.9513 20.6449C17.5908 20.6609 17.2245 20.6691 16.8539 20.6691C16.4933 20.6691 16.1384 20.6622 15.7904 20.6487ZM21.2011 19.4639C21.0384 18.9598 20.8336 18.4296 20.5906 17.8817C20.422 18.2032 20.2463 18.5209 20.0634 18.8346C19.8835 19.1433 19.6975 19.4485 19.5053 19.7499C20.1049 19.6787 20.674 19.5829 21.2011 19.4639ZM18.5186 19.843C18.8245 19.3884 19.1153 18.9241 19.3907 18.4508H19.3908C19.6685 17.9749 19.9291 17.4893 20.1719 16.995C19.9265 16.5056 19.6652 16.0243 19.3882 15.5518C19.1128 15.0806 18.8207 14.6191 18.5123 14.1682C17.9719 14.1274 17.4168 14.1061 16.854 14.1061C16.2937 14.1061 15.7394 14.1273 15.1987 14.1677C14.8873 14.6193 14.5933 15.0824 14.3173 15.5561V15.5559C14.0413 16.0295 13.7834 16.5131 13.5441 17.0059C13.784 17.4985 14.0427 17.9819 14.3197 18.455C14.5979 18.9307 14.8943 19.3958 15.2081 19.8494C15.738 19.8833 16.2883 19.9008 16.8539 19.9008C17.4219 19.9008 17.9793 19.8811 18.5186 19.843ZM21.4557 13.4557C21.8382 11.6188 21.6014 10.2181 20.9927 9.87072C20.4212 9.5446 19.1669 10.0009 17.8248 11.1565C17.6823 11.2795 17.5429 11.406 17.4068 11.5358C17.9263 12.0897 18.4439 12.7296 18.9434 13.4333C19.8008 13.5129 20.6198 13.6411 21.374 13.8132C21.4034 13.6946 21.4306 13.5753 21.4557 13.4557Z" fill="#CFCFCF"/>
<path d="M16.8538 15.3813C17.7504 15.3813 18.4771 16.1004 18.4771 16.9874C18.4771 17.8745 17.7504 18.5936 16.8538 18.5936C15.9574 18.5936 15.2306 17.8745 15.2306 16.9874C15.2306 16.1004 15.9574 15.3813 16.8538 15.3813" fill="#CFCFCF"/>
</svg>
