<svg width="24" height="24" viewBox="0 0 24 24" fill="none" xmlns="http://www.w3.org/2000/svg">
<path fill-rule="evenodd" clip-rule="evenodd" d="M12 0.000366211C5.374 0.000366211 0 5.37237 0 12.0004C0 18.6274 5.374 24.0004 12 24.0004C18.627 24.0004 24 18.6274 24 12.0004C24 5.37237 18.627 0.000366211 12 0.000366211ZM18.974 17.5574V17.3224L17.882 16.2504C17.786 16.1774 17.738 16.0564 17.758 15.9374V8.06337C17.738 7.94437 17.786 7.82337 17.882 7.75037L19 6.67837V6.44337H15.131L12.373 13.3234L9.235 6.44337H5.176V6.67837L6.484 8.25337C6.612 8.36837 6.678 8.53837 6.66 8.71037V14.8984C6.698 15.1214 6.628 15.3494 6.471 15.5124L5 17.2964V17.5314H9.17V17.2964L7.699 15.5124C7.541 15.3494 7.466 15.1234 7.497 14.8984V9.54637L11.157 17.5314H11.582L14.725 9.54637V15.9114C14.725 16.0814 14.725 16.1134 14.614 16.2244L13.484 17.3224V17.5574H18.974V17.5574Z" fill="#CFCFCF"/>
</svg>
