<svg width="34" height="34" viewBox="0 0 34 34" fill="none" xmlns="http://www.w3.org/2000/svg">
<path d="M33.284 17C33.284 26.1157 25.9421 33.5 16.892 33.5C7.84196 33.5 0.5 26.1157 0.5 17C0.5 7.88429 7.84196 0.5 16.892 0.5C25.9421 0.5 33.284 7.88429 33.284 17Z" stroke="#8F9596" stroke-opacity="0.3"/>
<path d="M9.3792 12.671V20H7.9092V16.8815H4.7697V20H3.2997V12.671H4.7697V15.6845H7.9092V12.671H9.3792ZM15.8136 12.671V13.8575H13.8606V20H12.3906V13.8575H10.4376V12.671H15.8136ZM24.8766 12.671V20H23.4066V15.233L21.4431 20H20.3301L18.3561 15.233V20H16.8861V12.671H18.5556L20.8866 18.1205L23.2176 12.671H24.8766ZM27.8 18.8345H30.215V20H26.33V12.671H27.8V18.8345Z" fill="#717171"/>
</svg>
