<svg width="34" height="34" viewBox="0 0 34 34" fill="none" xmlns="http://www.w3.org/2000/svg">
<path d="M33.1302 17C33.1302 26.0317 25.8562 33.3462 16.892 33.3462C7.92785 33.3462 0.653846 26.0317 0.653846 17C0.653846 7.96833 7.92785 0.653846 16.892 0.653846C25.8562 0.653846 33.1302 7.96833 33.1302 17Z" stroke="#DFDFDF" stroke-width="1.30769"/>
<path d="M7.78959 13.4301V16.4756H5.28954V13.4301H3.47132V21.3848H5.28954V18.2256H7.78959V21.3848H9.6078V13.4301H7.78959ZM16.3142 13.4301H10.405V15.1801H12.4505V21.3848H14.2688V15.1801H16.3142V13.4301ZM25.0649 13.4301H23.2466L21.0875 16.9642L18.9284 13.4301H17.1102V21.3848H18.9284V16.7597L20.9852 20.1347H21.1898L23.2466 16.7597V21.3848H25.0649V13.4301ZM28.2503 19.6347V13.4301H26.4321V21.3848H31.0912V19.6347H28.2503Z" fill="#303030"/>
</svg>
