<svg width="35" height="34" viewBox="0 0 35 34" fill="none" xmlns="http://www.w3.org/2000/svg">
<path d="M34.068 17C34.068 26.1157 26.726 33.5 17.676 33.5C8.62589 33.5 1.28394 26.1157 1.28394 17C1.28394 7.88429 8.62589 0.5 17.676 0.5C26.726 0.5 34.068 7.88429 34.068 17Z" stroke="#DFDFDF"/>
<path d="M9.82104 14.9831C10.4418 14.9831 10.9613 14.4636 10.9613 13.8428C10.9613 13.2221 10.4418 12.7026 9.82104 12.7026C9.20026 12.7026 8.68083 13.2221 8.68083 13.8428C8.68083 14.4636 9.20026 14.9831 9.82104 14.9831ZM8.87087 21.875H10.7712V15.5405H8.87087V21.875ZM16.4566 22.0524C19.0031 22.0524 21.0682 20.0507 21.0682 17.4408C21.0682 14.831 19.0031 12.8293 16.4566 12.8293C13.9102 12.8293 11.8451 14.831 11.8451 17.4408C11.8451 20.0507 13.9102 22.0524 16.4566 22.0524ZM16.4566 20.076C15.0124 20.076 13.8722 19.0245 13.8722 17.4408C13.8722 15.8572 15.0124 14.8057 16.4566 14.8057C17.9009 14.8057 19.0411 15.8572 19.0411 17.4408C19.0411 19.0245 17.9009 20.076 16.4566 20.076ZM24.9917 22.0524C26.9174 22.0524 28.2856 21.0388 28.2856 19.3285C28.2856 17.4535 26.778 16.9848 25.4351 16.5794C24.0542 16.1613 23.8388 15.8826 23.8388 15.4771C23.8388 15.1224 24.1555 14.8057 24.789 14.8057C25.5998 14.8057 26.0179 15.1984 26.3219 15.8319L28.0323 14.831C27.3861 13.5261 26.2459 12.8293 24.789 12.8293C23.256 12.8293 21.8118 13.8175 21.8118 15.5278C21.8118 17.2255 23.104 17.8589 24.4216 18.2263C25.7518 18.5937 26.2586 18.8091 26.2586 19.3539C26.2586 19.6959 26.0179 20.076 25.055 20.076C24.0542 20.076 23.5094 19.5819 23.1927 18.8471L21.4444 19.8606C21.9385 21.1655 23.1294 22.0524 24.9917 22.0524Z" fill="#717171"/>
<a href="https://drive.google.com/drive/folders/1St7XAmi8VjxfX_9Y5fnG6YNbp9qwjhgG">
<rect fill="black" fill-opacity="0" y="-4.9717" width="20.365" height="15.5195"/>
</a>
</svg>
