<svg width="34" height="34" viewBox="0 0 34 34" fill="none" xmlns="http://www.w3.org/2000/svg">
<path d="M33.284 17C33.284 26.1157 25.9421 33.5 16.892 33.5C7.84196 33.5 0.5 26.1157 0.5 17C0.5 7.88429 7.84196 0.5 16.892 0.5C25.9421 0.5 33.284 7.88429 33.284 17Z" stroke="#8F9596" stroke-opacity="0.3"/>
<path d="M9.00837 14.1304C8.73507 14.1304 8.50608 14.0455 8.32141 13.8756C8.14413 13.6983 8.05549 13.4804 8.05549 13.2218C8.05549 12.9633 8.14413 12.7491 8.32141 12.5792C8.50608 12.4019 8.73507 12.3133 9.00837 12.3133C9.28168 12.3133 9.50697 12.4019 9.68425 12.5792C9.86892 12.7491 9.96125 12.9633 9.96125 13.2218C9.96125 13.4804 9.86892 13.6983 9.68425 13.8756C9.50697 14.0455 9.28168 14.1304 9.00837 14.1304ZM9.77289 14.8617V21H8.22169V14.8617H9.77289ZM14.8954 21.0776C14.1715 21.0776 13.5067 20.9077 12.901 20.5679C12.2953 20.2281 11.8152 19.759 11.4606 19.1607C11.106 18.555 10.9288 17.8717 10.9288 17.1109C10.9288 16.3575 11.106 15.6816 11.4606 15.0833C11.8152 14.4776 12.2953 14.0048 12.901 13.665C13.5067 13.3253 14.1715 13.1554 14.8954 13.1554C15.6267 13.1554 16.2915 13.3253 16.8898 13.665C17.4955 14.0048 17.9719 14.4776 18.3191 15.0833C18.6737 15.6816 18.851 16.3575 18.851 17.1109C18.851 17.8717 18.6737 18.555 18.3191 19.1607C17.9719 19.759 17.4955 20.2281 16.8898 20.5679C16.2841 20.9077 15.6193 21.0776 14.8954 21.0776ZM14.8954 19.6926C15.3608 19.6926 15.7707 19.5891 16.1253 19.3823C16.4798 19.1681 16.7568 18.8653 16.9563 18.4738C17.1557 18.0823 17.2554 17.628 17.2554 17.1109C17.2554 16.5939 17.1557 16.1433 16.9563 15.7592C16.7568 15.3677 16.4798 15.0685 16.1253 14.8617C15.7707 14.6549 15.3608 14.5514 14.8954 14.5514C14.43 14.5514 14.0164 14.6549 13.6544 14.8617C13.2999 15.0685 13.0229 15.3677 12.8234 15.7592C12.624 16.1433 12.5243 16.5939 12.5243 17.1109C12.5243 17.628 12.624 18.0823 12.8234 18.4738C13.0229 18.8653 13.2999 19.1681 13.6544 19.3823C14.0164 19.5891 14.43 19.6926 14.8954 19.6926ZM22.6753 21.0776C22.1361 21.0776 21.6485 20.9852 21.2127 20.8006C20.7843 20.6159 20.4445 20.35 20.1934 20.0028C19.9422 19.6556 19.813 19.2457 19.8056 18.7729H21.4676C21.4897 19.0905 21.6005 19.3417 21.8 19.5264C22.0068 19.711 22.2875 19.8034 22.6421 19.8034C23.004 19.8034 23.2884 19.7184 23.4952 19.5485C23.702 19.3712 23.8055 19.1423 23.8055 18.8616C23.8055 18.6326 23.7353 18.4442 23.5949 18.2965C23.4546 18.1487 23.2773 18.0343 23.0631 17.953C22.8563 17.8644 22.5682 17.7683 22.1989 17.6649C21.6966 17.5172 21.2866 17.3731 20.969 17.2328C20.6587 17.0851 20.3891 16.8672 20.1601 16.5791C19.9385 16.2836 19.8277 15.8921 19.8277 15.4046C19.8277 14.9466 19.9422 14.5477 20.1712 14.208C20.4002 13.8682 20.7215 13.6096 21.1352 13.4324C21.5488 13.2477 22.0216 13.1554 22.5534 13.1554C23.3512 13.1554 23.9975 13.3511 24.4924 13.7426C24.9947 14.1267 25.2717 14.6659 25.3234 15.3603H23.6171C23.6023 15.0944 23.4878 14.8765 23.2736 14.7066C23.0668 14.5293 22.7898 14.4406 22.4426 14.4406C22.1398 14.4406 21.896 14.5182 21.7113 14.6733C21.5341 14.8284 21.4454 15.0537 21.4454 15.3492C21.4454 15.556 21.5119 15.7296 21.6449 15.87C21.7852 16.0029 21.9551 16.1137 22.1545 16.2024C22.3614 16.2836 22.6494 16.3796 23.0188 16.4904C23.5211 16.6382 23.931 16.7859 24.2487 16.9336C24.5663 17.0814 24.8396 17.303 25.0686 17.5984C25.2976 17.8939 25.4121 18.2817 25.4121 18.7618C25.4121 19.1755 25.3049 19.5596 25.0907 19.9142C24.8765 20.2687 24.5626 20.5531 24.1489 20.7673C23.7353 20.9741 23.2441 21.0776 22.6753 21.0776Z" fill="#717171"/>
</svg>
