<svg width="34" height="34" viewBox="0 0 34 34" fill="none" xmlns="http://www.w3.org/2000/svg">
<path d="M33.3397 17C33.3397 26.1157 25.9978 33.5 16.9477 33.5C7.89762 33.5 0.555664 26.1157 0.555664 17C0.555664 7.88429 7.89762 0.5 16.9477 0.5C25.9978 0.5 33.3397 7.88429 33.3397 17Z" stroke="#DFDFDF"/>
<path d="M9.09277 14.9831C9.71356 14.9831 10.233 14.4636 10.233 13.8428C10.233 13.2221 9.71356 12.7026 9.09277 12.7026C8.47199 12.7026 7.95256 13.2221 7.95256 13.8428C7.95256 14.4636 8.47199 14.9831 9.09277 14.9831ZM8.1426 21.875H10.0429V15.5405H8.1426V21.875ZM15.7284 22.0524C18.2748 22.0524 20.3399 20.0507 20.3399 17.4408C20.3399 14.831 18.2748 12.8293 15.7284 12.8293C13.1819 12.8293 11.1168 14.831 11.1168 17.4408C11.1168 20.0507 13.1819 22.0524 15.7284 22.0524ZM15.7284 20.076C14.2841 20.076 13.1439 19.0245 13.1439 17.4408C13.1439 15.8572 14.2841 14.8057 15.7284 14.8057C17.1726 14.8057 18.3128 15.8572 18.3128 17.4408C18.3128 19.0245 17.1726 20.076 15.7284 20.076ZM24.2634 22.0524C26.1891 22.0524 27.5574 21.0388 27.5574 19.3285C27.5574 17.4535 26.0498 16.9848 24.7068 16.5794C23.3259 16.1613 23.1105 15.8826 23.1105 15.4771C23.1105 15.1224 23.4273 14.8057 24.0607 14.8057C24.8715 14.8057 25.2896 15.1984 25.5937 15.8319L27.304 14.831C26.6579 13.5261 25.5177 12.8293 24.0607 12.8293C22.5278 12.8293 21.0835 13.8175 21.0835 15.5278C21.0835 17.2255 22.3757 17.8589 23.6933 18.2263C25.0236 18.5937 25.5303 18.8091 25.5303 19.3539C25.5303 19.6959 25.2896 20.076 24.3268 20.076C23.3259 20.076 22.7812 19.5819 22.4644 18.8471L20.7161 19.8606C21.2102 21.1655 22.4011 22.0524 24.2634 22.0524Z" fill="#303030"/>
<a href="https://drive.google.com/drive/folders/1St7XAmi8VjxfX_9Y5fnG6YNbp9qwjhgG">
<rect fill="black" fill-opacity="0" y="-4.9717" width="20.365" height="15.5195"/>
</a>
</svg>
