<svg width="34" height="34" viewBox="0 0 34 34" fill="none" xmlns="http://www.w3.org/2000/svg">
<path d="M33.284 17C33.284 26.1157 25.9421 33.5 16.892 33.5C7.84196 33.5 0.5 26.1157 0.5 17C0.5 7.88429 7.84196 0.5 16.892 0.5C25.9421 0.5 33.284 7.88429 33.284 17Z" stroke="#8F9596" stroke-opacity="0.3"/>
<path d="M15.4725 12.157V18.3648C15.4725 19.2263 15.2234 19.8978 14.725 20.3792C14.2267 20.8522 13.5595 21.0887 12.7233 21.0887C11.8787 21.0887 11.1946 20.8437 10.671 20.3539C10.1558 19.864 9.89815 19.1799 9.89815 18.3015H11.6718C11.6803 18.6816 11.7689 18.9772 11.9379 19.1883C12.1152 19.3995 12.3686 19.5051 12.698 19.5051C13.019 19.5051 13.2639 19.4037 13.4328 19.201C13.6017 18.9983 13.6862 18.7196 13.6862 18.3648V12.157H15.4725ZM20.2147 21.0887C19.5981 21.0887 19.0407 20.9831 18.5424 20.772C18.0525 20.5608 17.664 20.2568 17.3768 19.8598C17.0897 19.4628 16.9419 18.9941 16.9334 18.4535H18.8338C18.8591 18.8167 18.9858 19.1039 19.2138 19.315C19.4503 19.5262 19.7713 19.6317 20.1767 19.6317C20.5905 19.6317 20.9157 19.5346 21.1522 19.3404C21.3887 19.1377 21.5069 18.8758 21.5069 18.5549C21.5069 18.2931 21.4267 18.0777 21.2662 17.9088C21.1057 17.7398 20.903 17.6089 20.6581 17.516C20.4216 17.4147 20.0922 17.3049 19.6699 17.1866C19.0956 17.0177 18.6268 16.853 18.2637 16.6925C17.9089 16.5236 17.6006 16.2745 17.3388 15.9451C17.0854 15.6072 16.9588 15.1596 16.9588 14.6021C16.9588 14.0785 17.0897 13.6224 17.3515 13.2339C17.6133 12.8454 17.9807 12.5498 18.4537 12.3471C18.9267 12.1359 19.4672 12.0303 20.0753 12.0303C20.9875 12.0303 21.7265 12.2542 22.2924 12.7018C22.8667 13.141 23.1835 13.7575 23.2426 14.5515H21.2916C21.2747 14.2474 21.1438 13.9983 20.8988 13.804C20.6623 13.6013 20.3456 13.4999 19.9486 13.4999C19.6024 13.4999 19.3236 13.5886 19.1125 13.766C18.9098 13.9434 18.8084 14.201 18.8084 14.5388C18.8084 14.7753 18.8844 14.9738 19.0365 15.1342C19.1969 15.2863 19.3912 15.413 19.6192 15.5143C19.8557 15.6072 20.1851 15.717 20.6074 15.8437C21.1818 16.0126 21.6505 16.1815 22.0137 16.3505C22.3769 16.5194 22.6894 16.7728 22.9512 17.1106C23.213 17.4485 23.3439 17.8919 23.3439 18.4409C23.3439 18.9138 23.2215 19.353 22.9765 19.7584C22.7316 20.1638 22.3726 20.489 21.8997 20.734C21.4267 20.9704 20.865 21.0887 20.2147 21.0887Z" fill="#717171"/>
</svg>
