<svg width="34" height="34" viewBox="0 0 34 34" fill="none" xmlns="http://www.w3.org/2000/svg">
<circle cx="17" cy="17" r="16.3462" stroke="#DFDFDF" stroke-width="1.30769"/>
<path d="M13.0398 22.0851C14.8641 22.0851 16.2323 21.0082 16.2323 19.0572V13.0394H14.2053V19.0572C14.2053 19.602 13.9393 20.1087 13.0524 20.1087C12.3683 20.1087 12.0769 19.8427 11.7982 19.3486L10.0372 20.3621C10.62 21.4896 11.6335 22.0851 13.0398 22.0851ZM20.796 22.0851C22.7217 22.0851 24.0899 21.0716 24.0899 19.3612C24.0899 17.4862 22.5823 17.0175 21.2394 16.6121C19.8585 16.194 19.6431 15.9153 19.6431 15.5099C19.6431 15.1551 19.9598 14.8384 20.5933 14.8384C21.4041 14.8384 21.8222 15.2311 22.1262 15.8646L23.8365 14.8637C23.1904 13.5588 22.0502 12.862 20.5933 12.862C19.0603 12.862 17.616 13.8502 17.616 15.5605C17.616 17.2582 18.9083 17.8916 20.2259 18.259C21.5561 18.6264 22.0629 18.8418 22.0629 19.3866C22.0629 19.7286 21.8222 20.1087 20.8593 20.1087C19.8585 20.1087 19.3137 19.6146 18.997 18.8798L17.2486 19.8933C17.7427 21.1982 18.9336 22.0851 20.796 22.0851Z" fill="#303030"/>
</svg>
