<svg width="35" height="34" viewBox="0 0 35 34" fill="none" xmlns="http://www.w3.org/2000/svg">
<circle cx="17.1777" cy="17" r="16.3462" stroke="#DFDFDF" stroke-width="1.30769"/>
<path d="M13.2175 22.0851C15.0418 22.0851 16.4101 21.0082 16.4101 19.0572V13.0394H14.383V19.0572C14.383 19.602 14.117 20.1087 13.2302 20.1087C12.546 20.1087 12.2546 19.8427 11.9759 19.3486L10.2149 20.3621C10.7977 21.4896 11.8112 22.0851 13.2175 22.0851ZM20.9737 22.0851C22.8994 22.0851 24.2676 21.0716 24.2676 19.3612C24.2676 17.4862 22.76 17.0175 21.4171 16.6121C20.0362 16.194 19.8208 15.9153 19.8208 15.5099C19.8208 15.1551 20.1375 14.8384 20.771 14.8384C21.5818 14.8384 21.9999 15.2311 22.3039 15.8646L24.0143 14.8637C23.3681 13.5588 22.2279 12.862 20.771 12.862C19.238 12.862 17.7938 13.8502 17.7938 15.5605C17.7938 17.2582 19.086 17.8916 20.4036 18.259C21.7338 18.6264 22.2406 18.8418 22.2406 19.3866C22.2406 19.7286 21.9999 20.1087 21.037 20.1087C20.0362 20.1087 19.4914 19.6146 19.1747 18.8798L17.4264 19.8933C17.9205 21.1982 19.1114 22.0851 20.9737 22.0851Z" fill="#717171"/>
</svg>
