<svg width="24" height="24" viewBox="0 0 24 24" fill="none" xmlns="http://www.w3.org/2000/svg">
<path fill-rule="evenodd" clip-rule="evenodd" d="M12 0.000488281C5.374 0.000488281 0 5.37249 0 12.0005C0 18.6275 5.374 24.0005 12 24.0005C18.627 24.0005 24 18.6275 24 12.0005C24 5.37249 18.627 0.000488281 12 0.000488281ZM18.974 17.5575V17.3225L17.882 16.2505C17.786 16.1775 17.738 16.0565 17.758 15.9375V8.06349C17.738 7.94449 17.786 7.82349 17.882 7.75049L19 6.67849V6.44349H15.131L12.373 13.3235L9.235 6.44349H5.176V6.67849L6.484 8.25349C6.612 8.36849 6.678 8.53849 6.66 8.71049V14.8985C6.698 15.1215 6.628 15.3495 6.471 15.5125L5 17.2965V17.5315H9.17V17.2965L7.699 15.5125C7.541 15.3495 7.466 15.1235 7.497 14.8985V9.54649L11.157 17.5315H11.582L14.725 9.54649V15.9115C14.725 16.0815 14.725 16.1135 14.614 16.2245L13.484 17.3225V17.5575H18.974Z" fill="#303030"/>
</svg>
