<svg width="690" height="690" viewBox="0 0 690 690" fill="none" xmlns="http://www.w3.org/2000/svg">
<path d="M597.801 598.471C586.358 609.908 570.846 616.333 554.667 616.333H134.667C118.487 616.333 102.975 609.908 91.532 598.471C91.5316 598.47 91.5312 598.47 91.5308 598.47C91.5303 598.469 91.5298 598.469 91.5294 598.468C80.0922 587.025 73.6667 571.513 73.6667 555.333V135.333C73.6667 119.154 80.0923 103.642 91.5293 92.1986C102.973 80.7598 118.486 74.3333 134.667 74.3333H344.667C356.22 74.3333 366.895 68.1701 372.669 58.1658C378.443 48.1629 378.443 35.8371 372.669 25.8342C366.895 15.8297 356.22 9.66665 344.667 9.66665H134.667C101.337 9.66665 69.3759 22.9071 45.8081 46.4747C22.2401 70.0423 9 102.003 9 135.333V555.333C9 588.663 22.2404 620.624 45.808 644.192C69.3757 667.76 101.337 681 134.667 681H554.667C587.997 681 619.957 667.76 643.525 644.192C667.093 620.624 680.333 588.663 680.333 555.333V345.333C680.333 333.78 674.17 323.105 664.166 317.331C654.163 311.557 641.837 311.557 631.834 317.331C621.83 323.105 615.667 333.78 615.667 345.333V555.333C615.667 571.513 609.241 587.025 597.804 598.468M597.801 598.471L604.167 604.833L597.804 598.468M597.801 598.471C597.802 598.47 597.802 598.47 597.803 598.469M597.801 598.471L597.803 598.469M597.804 598.468C597.804 598.468 597.803 598.469 597.803 598.469M597.804 598.468L597.803 598.469M484.432 74.3323L484.455 74.3333H484.667H570.023L321.761 322.37C321.756 322.375 321.751 322.38 321.746 322.385C315.634 328.454 312.198 336.712 312.198 345.328C312.198 353.938 315.629 362.189 321.732 368.257C327.801 374.364 336.055 377.797 344.667 377.797C353.282 377.797 361.539 374.361 367.609 368.25C367.614 368.245 367.619 368.239 367.625 368.234L615.661 120.197V205.333C615.661 213.907 619.067 222.134 625.131 228.197C631.194 234.261 639.421 237.667 647.995 237.667C656.568 237.667 664.795 234.261 670.859 228.197C676.922 222.134 680.328 213.907 680.328 205.333V42.0186C680.369 33.4313 676.991 25.1908 670.957 19.0986L670.927 19.0681L670.896 19.0378C664.803 13.0022 656.56 9.62343 647.97 9.66639H484.661C473.107 9.66639 462.433 15.8294 456.658 25.834C450.885 35.8369 450.885 48.1627 456.658 58.1656C462.395 68.1037 472.967 74.2514 484.432 74.3323Z" fill="#1B1C1E" stroke="#1B1C1E" stroke-width="18"/>
</svg>
