<svg width="34" height="34" viewBox="0 0 34 34" fill="none" xmlns="http://www.w3.org/2000/svg">
<path d="M33.284 17C33.284 26.1157 25.9421 33.5 16.892 33.5C7.84196 33.5 0.5 26.1157 0.5 17C0.5 7.88429 7.84196 0.5 16.892 0.5C25.9421 0.5 33.284 7.88429 33.284 17Z" stroke="#8F9596" stroke-opacity="0.3"/>
<path d="M6.83081 14.099C7.52381 14.099 8.08381 14.3195 8.51081 14.7605C8.93781 15.1945 9.15131 15.8035 9.15131 16.5875V20H7.68131V16.787C7.68131 16.325 7.56581 15.9715 7.33481 15.7265C7.10381 15.4745 6.78881 15.3485 6.38981 15.3485C5.98381 15.3485 5.66181 15.4745 5.42381 15.7265C5.19281 15.9715 5.07731 16.325 5.07731 16.787V20H3.60731V14.183H5.07731V14.9075C5.27331 14.6555 5.52181 14.4595 5.82281 14.3195C6.13081 14.1725 6.46681 14.099 6.83081 14.099ZM13.1322 20.0945C12.5722 20.0945 12.0682 19.972 11.6202 19.727C11.1722 19.475 10.8187 19.1215 10.5597 18.6665C10.3077 18.2115 10.1817 17.6865 10.1817 17.0915C10.1817 16.4965 10.3112 15.9715 10.5702 15.5165C10.8362 15.0615 11.1967 14.7115 11.6517 14.4665C12.1067 14.2145 12.6142 14.0885 13.1742 14.0885C13.7342 14.0885 14.2417 14.2145 14.6967 14.4665C15.1517 14.7115 15.5087 15.0615 15.7677 15.5165C16.0337 15.9715 16.1667 16.4965 16.1667 17.0915C16.1667 17.6865 16.0302 18.2115 15.7572 18.6665C15.4912 19.1215 15.1272 19.475 14.6652 19.727C14.2102 19.972 13.6992 20.0945 13.1322 20.0945ZM13.1322 18.8135C13.3982 18.8135 13.6467 18.7505 13.8777 18.6245C14.1157 18.4915 14.3047 18.2955 14.4447 18.0365C14.5847 17.7775 14.6547 17.4625 14.6547 17.0915C14.6547 16.5385 14.5077 16.115 14.2137 15.821C13.9267 15.52 13.5732 15.3695 13.1532 15.3695C12.7332 15.3695 12.3797 15.52 12.0927 15.821C11.8127 16.115 11.6727 16.5385 11.6727 17.0915C11.6727 17.6445 11.8092 18.0715 12.0822 18.3725C12.3622 18.6665 12.7122 18.8135 13.1322 18.8135ZM16.867 17.0705C16.867 16.4825 16.9825 15.961 17.2135 15.506C17.4515 15.051 17.7735 14.701 18.1795 14.456C18.5855 14.211 19.037 14.0885 19.534 14.0885C19.912 14.0885 20.2725 14.1725 20.6155 14.3405C20.9585 14.5015 21.2315 14.7185 21.4345 14.9915V12.23H22.9255V20H21.4345V19.139C21.2525 19.426 20.997 19.657 20.668 19.832C20.339 20.007 19.9575 20.0945 19.5235 20.0945C19.0335 20.0945 18.5855 19.9685 18.1795 19.7165C17.7735 19.4645 17.4515 19.111 17.2135 18.656C16.9825 18.194 16.867 17.6655 16.867 17.0705ZM21.445 17.0915C21.445 16.7345 21.375 16.43 21.235 16.178C21.095 15.919 20.906 15.723 20.668 15.59C20.43 15.45 20.1745 15.38 19.9015 15.38C19.6285 15.38 19.3765 15.4465 19.1455 15.5795C18.9145 15.7125 18.7255 15.9085 18.5785 16.1675C18.4385 16.4195 18.3685 16.7205 18.3685 17.0705C18.3685 17.4205 18.4385 17.7285 18.5785 17.9945C18.7255 18.2535 18.9145 18.453 19.1455 18.593C19.3835 18.733 19.6355 18.803 19.9015 18.803C20.1745 18.803 20.43 18.7365 20.668 18.6035C20.906 18.4635 21.095 18.2675 21.235 18.0155C21.375 17.7565 21.445 17.4485 21.445 17.0915ZM29.7687 16.9655C29.7687 17.1755 29.7547 17.3645 29.7267 17.5325H25.4742C25.5092 17.9525 25.6562 18.2815 25.9152 18.5195C26.1742 18.7575 26.4927 18.8765 26.8707 18.8765C27.4167 18.8765 27.8052 18.642 28.0362 18.173H29.6217C29.4537 18.733 29.1317 19.195 28.6557 19.559C28.1797 19.916 27.5952 20.0945 26.9022 20.0945C26.3422 20.0945 25.8382 19.972 25.3902 19.727C24.9492 19.475 24.6027 19.1215 24.3507 18.6665C24.1057 18.2115 23.9832 17.6865 23.9832 17.0915C23.9832 16.4895 24.1057 15.961 24.3507 15.506C24.5957 15.051 24.9387 14.701 25.3797 14.456C25.8207 14.211 26.3282 14.0885 26.9022 14.0885C27.4552 14.0885 27.9487 14.2075 28.3827 14.4455C28.8237 14.6835 29.1632 15.023 29.4012 15.464C29.6462 15.898 29.7687 16.3985 29.7687 16.9655ZM28.2462 16.5455C28.2392 16.1675 28.1027 15.8665 27.8367 15.6425C27.5707 15.4115 27.2452 15.296 26.8602 15.296C26.4962 15.296 26.1882 15.408 25.9362 15.632C25.6912 15.849 25.5407 16.1535 25.4847 16.5455H28.2462Z" fill="#717171"/>
</svg>
