<svg width="34" height="34" viewBox="0 0 34 34" fill="none" xmlns="http://www.w3.org/2000/svg">
<path d="M33.284 17C33.284 26.1157 25.9421 33.5 16.892 33.5C7.84196 33.5 0.5 26.1157 0.5 17C0.5 7.88429 7.84196 0.5 16.892 0.5C25.9421 0.5 33.284 7.88429 33.284 17Z" stroke="#8F9596" stroke-opacity="0.3"/>
<path fill-rule="evenodd" clip-rule="evenodd" d="M22.1257 14.0056C22.3223 14.0615 22.5174 14.1223 22.7109 14.188C24.6742 14.8567 25.9429 15.9042 25.9429 16.9873C25.9429 18.1169 24.5871 19.2213 22.5031 19.9045C22.3929 19.9406 22.2801 19.9753 22.165 20.0089C22.2061 20.1722 22.2427 20.3326 22.274 20.4897C22.6855 22.5458 22.3686 24.2357 21.3936 24.7942C20.4495 25.3349 18.9237 24.8038 17.3787 23.4884C17.2108 23.3451 17.0469 23.1971 16.8873 23.0448C16.7606 23.166 16.6341 23.2817 16.508 23.3907C14.913 24.7702 13.275 25.3425 12.2991 24.7857C11.3542 24.2464 11.0572 22.6733 11.4374 20.6921C11.479 20.4768 11.5266 20.2627 11.5802 20.05C11.4151 20.0033 11.2512 19.9526 11.0887 19.8979C9.08403 19.2201 7.76465 18.102 7.76465 16.9873C7.76465 15.9081 8.99377 14.8676 10.9183 14.2038C11.1334 14.1296 11.3583 14.0599 11.5911 13.9944C11.5412 13.797 11.4964 13.5984 11.4568 13.3987C11.058 11.3825 11.3386 9.77116 12.286 9.22854C13.274 8.66267 14.9194 9.27033 16.561 10.7125C16.6631 10.8024 16.7635 10.8942 16.8622 10.9877C17.0096 10.847 17.1605 10.71 17.3148 10.5768C18.8812 9.22814 20.4321 8.66395 21.3804 9.20506C22.3694 9.76925 22.6591 11.4832 22.2161 13.6107C22.1884 13.7429 22.1583 13.8745 22.1257 14.0056ZM21.9536 19.2697C22.0575 19.2392 22.1595 19.2077 22.2589 19.1752H22.259C24.0582 18.5853 25.1664 17.6826 25.1664 16.9873C25.1664 16.3346 24.1404 15.4875 22.4581 14.9146C22.2842 14.8553 22.1037 14.7992 21.9178 14.7458C21.6941 15.4618 21.3956 16.2182 21.033 16.9912C21.4129 17.7828 21.7235 18.5491 21.9536 19.2697ZM21.5997 23.0127C21.7202 22.3701 21.6942 21.5481 21.5123 20.6389C21.4839 20.497 21.4509 20.3519 21.4139 20.2038C20.661 20.376 19.8307 20.5022 18.9519 20.5793C18.4523 21.2949 17.9404 21.9393 17.4281 22.4936C17.5812 22.6393 17.7338 22.777 17.8853 22.906C19.2064 24.0309 20.4316 24.4573 21.0045 24.1292C21.2737 23.9751 21.4914 23.5901 21.5997 23.0127ZM12.6871 24.12C12.9566 24.2737 13.4023 24.2681 13.962 24.0726H13.9621C14.5849 23.8549 15.2917 23.4222 15.997 22.8121C16.1151 22.7098 16.2305 22.6046 16.3434 22.4966C15.8125 21.933 15.2858 21.2893 14.7829 20.5891C13.902 20.5184 13.0778 20.4012 12.3332 20.2382C12.2834 20.436 12.2391 20.6351 12.2005 20.8354C11.8754 22.5296 12.1137 23.7929 12.6871 24.12ZM9.21971 18.0565C9.72148 18.4816 10.4535 18.8711 11.3399 19.1709C11.4883 19.2208 11.6379 19.2672 11.7887 19.3099C12.0183 18.5692 12.3209 17.7916 12.6857 17.006C12.3256 16.232 12.0272 15.4666 11.7997 14.7345C11.5892 14.7934 11.3806 14.8584 11.174 14.9293C9.52808 15.4971 8.54119 16.3325 8.54119 16.9873C8.54119 17.2951 8.76887 17.6744 9.21971 18.0565ZM12.6751 9.8935C12.1041 10.2205 11.8772 11.5236 12.2189 13.2511V13.2511C12.2558 13.4368 12.2975 13.6216 12.3438 13.8052C13.0962 13.6365 13.9146 13.5106 14.7696 13.4322C15.2681 12.736 15.79 12.0973 16.3181 11.5362C16.2269 11.45 16.136 11.3666 16.0454 11.287C14.628 10.0419 13.2833 9.54518 12.6751 9.8935ZM19.5074 14.2674C19.6982 14.5632 19.8825 14.8631 20.0602 15.1668C20.2408 15.4753 20.4151 15.7874 20.5831 16.1028C20.813 15.5702 21.0083 15.0508 21.1649 14.554C20.6431 14.4361 20.0874 14.3398 19.5074 14.2674ZM17.9322 13.363C17.5794 12.8979 17.2207 12.4692 16.8625 12.0853C16.4987 12.4736 16.1369 12.9017 15.7837 13.3625C16.4995 13.3293 17.2165 13.3295 17.9322 13.363ZM13.1312 16.1022C13.2949 15.7883 13.466 15.4781 13.6443 15.1721C13.8229 14.8658 14.0087 14.5636 14.2016 14.2659C13.6253 14.3372 13.0722 14.431 12.5536 14.5459C12.7116 15.0497 12.9051 15.5715 13.1312 16.1022ZM12.5429 19.4971C13.0614 19.6088 13.6228 19.6978 14.2182 19.7636C14.0205 19.4602 13.8303 19.1522 13.6475 18.8399C13.4683 18.5337 13.2965 18.2234 13.1321 17.9092C12.9011 18.4513 12.7034 18.9843 12.5429 19.4971ZM15.7903 20.6486C16.1488 21.1161 16.5159 21.5507 16.884 21.9437C17.2397 21.5561 17.5972 21.1209 17.9512 20.6449C17.5907 20.6608 17.2244 20.669 16.8538 20.669C16.4932 20.669 16.1383 20.6622 15.7903 20.6486ZM21.2009 19.4638C21.0383 18.9597 20.8335 18.4296 20.5905 17.8816C20.4219 18.2031 20.2462 18.5208 20.0633 18.8346C19.8834 19.1433 19.6974 19.4484 19.5052 19.7498C20.1048 19.6786 20.6738 19.5828 21.2009 19.4638ZM18.5185 19.8429C18.8244 19.3883 19.1152 18.924 19.3906 18.4508H19.3907C19.6684 17.9748 19.9289 17.4892 20.1717 16.9949C19.9264 16.5056 19.665 16.0243 19.3881 15.5518C19.1127 15.0805 18.8205 14.619 18.5122 14.1681C17.9718 14.1274 17.4167 14.106 16.8539 14.106C16.2936 14.106 15.7393 14.1272 15.1986 14.1676C14.8872 14.6192 14.5931 15.0823 14.3172 15.556V15.5558C14.0412 16.0294 13.7833 16.5131 13.544 17.0058C13.7839 17.4984 14.0426 17.9818 14.3195 18.455C14.5978 18.9307 14.8942 19.3958 15.208 19.8493C15.7379 19.8833 16.2882 19.9007 16.8538 19.9007C17.4218 19.9007 17.9792 19.8811 18.5185 19.8429ZM21.4556 13.4556C21.838 11.6187 21.6013 10.218 20.9926 9.87066C20.4211 9.54454 19.1668 10.0008 17.8247 11.1564C17.6822 11.2794 17.5428 11.4059 17.4067 11.5358C17.9262 12.0896 18.4438 12.7295 18.9433 13.4333C19.8007 13.5129 20.6197 13.641 21.3738 13.8132C21.4033 13.6945 21.4305 13.5753 21.4556 13.4556Z" fill="#717171"/>
<path d="M22.7109 14.188L22.7431 14.0934L22.743 14.0933L22.7109 14.188ZM22.1257 14.0056L22.0286 13.9814L22.0053 14.0753L22.0983 14.1018L22.1257 14.0056ZM22.5031 19.9045L22.4719 19.8094L22.4719 19.8094L22.5031 19.9045ZM22.165 20.0089L22.137 19.9129L22.0446 19.9399L22.068 20.0333L22.165 20.0089ZM22.274 20.4897L22.176 20.5093L22.176 20.5093L22.274 20.4897ZM21.3936 24.7942L21.4433 24.881L21.4433 24.881L21.3936 24.7942ZM17.3787 23.4884L17.3138 23.5645L17.3139 23.5645L17.3787 23.4884ZM16.8873 23.0448L16.9564 22.9725L16.8872 22.9065L16.8182 22.9725L16.8873 23.0448ZM16.508 23.3907L16.5734 23.4664L16.5734 23.4664L16.508 23.3907ZM12.2991 24.7857L12.2495 24.8725L12.2495 24.8725L12.2991 24.7857ZM11.4374 20.6921L11.3393 20.6731L11.3392 20.6732L11.4374 20.6921ZM11.5802 20.05L11.6772 20.0744L11.701 19.9802L11.6074 19.9537L11.5802 20.05ZM11.0887 19.8979L11.0567 19.9927L11.0568 19.9927L11.0887 19.8979ZM10.9183 14.2038L10.8857 14.1092L10.8857 14.1092L10.9183 14.2038ZM11.5911 13.9944L11.6182 14.0907L11.7119 14.0644L11.6881 13.9699L11.5911 13.9944ZM11.4568 13.3987L11.3587 13.4181L11.3587 13.4182L11.4568 13.3987ZM12.286 9.22854L12.2363 9.14176L12.2363 9.14177L12.286 9.22854ZM16.561 10.7125L16.6271 10.6374L16.627 10.6374L16.561 10.7125ZM16.8622 10.9877L16.7934 11.0603L16.8625 11.1258L16.9313 11.0601L16.8622 10.9877ZM17.3148 10.5768L17.2496 10.501L17.2495 10.5011L17.3148 10.5768ZM21.3804 9.20506L21.3308 9.29191L21.3308 9.29192L21.3804 9.20506ZM22.2161 13.6107L22.314 13.6312L22.314 13.6311L22.2161 13.6107ZM22.2589 19.1752V19.0752H22.2429L22.2277 19.0802L22.2589 19.1752ZM21.9536 19.2697L21.8583 19.3001L21.888 19.3931L21.9817 19.3656L21.9536 19.2697ZM22.259 19.1752V19.2752H22.2749L22.2901 19.2702L22.259 19.1752ZM22.4581 14.9146L22.4259 15.0092L22.4259 15.0092L22.4581 14.9146ZM21.9178 14.7458L21.9453 14.6497L21.8514 14.6228L21.8223 14.716L21.9178 14.7458ZM21.033 16.9912L20.9425 16.9487L20.9224 16.9916L20.9429 17.0344L21.033 16.9912ZM21.5123 20.6389L21.6103 20.6193L21.6103 20.6193L21.5123 20.6389ZM21.5997 23.0127L21.5014 22.9943L21.5014 22.9943L21.5997 23.0127ZM21.4139 20.2038L21.5109 20.1796L21.4871 20.0845L21.3916 20.1063L21.4139 20.2038ZM18.9519 20.5793L18.9431 20.4797L18.8966 20.4838L18.8699 20.5221L18.9519 20.5793ZM17.4281 22.4936L17.3547 22.4258L17.2878 22.4981L17.3592 22.5661L17.4281 22.4936ZM17.8853 22.906L17.9501 22.8298L17.9501 22.8298L17.8853 22.906ZM21.0045 24.1292L21.0542 24.216L21.0542 24.216L21.0045 24.1292ZM13.962 24.0726V23.9726H13.9451L13.929 23.9782L13.962 24.0726ZM12.6871 24.12L12.6376 24.2069L12.6376 24.2069L12.6871 24.12ZM13.9621 24.0726V24.1726H13.9791L13.9951 24.167L13.9621 24.0726ZM15.997 22.8121L16.0624 22.8878L16.0625 22.8877L15.997 22.8121ZM16.3434 22.4966L16.4125 22.5688L16.4842 22.5002L16.4162 22.428L16.3434 22.4966ZM14.7829 20.5891L14.8642 20.5308L14.8371 20.4931L14.7909 20.4894L14.7829 20.5891ZM12.3332 20.2382L12.3546 20.1405L12.2599 20.1198L12.2363 20.2138L12.3332 20.2382ZM12.2005 20.8354L12.1023 20.8164L12.1023 20.8165L12.2005 20.8354ZM11.3399 19.1709L11.3079 19.2656L11.308 19.2657L11.3399 19.1709ZM9.21971 18.0565L9.15506 18.1328L9.15508 18.1328L9.21971 18.0565ZM11.7887 19.3099L11.7614 19.4061L11.8553 19.4327L11.8842 19.3395L11.7887 19.3099ZM12.6857 17.006L12.7764 17.0482L12.7959 17.006L12.7763 16.9639L12.6857 17.006ZM11.7997 14.7345L11.8952 14.7049L11.8663 14.612L11.7727 14.6382L11.7997 14.7345ZM11.174 14.9293L11.1415 14.8347L11.1414 14.8348L11.174 14.9293ZM12.2189 13.2511L12.1208 13.2705L12.3189 13.2511H12.2189ZM12.6751 9.8935L12.6254 9.80673L12.6254 9.80673L12.6751 9.8935ZM12.2189 13.2511L12.317 13.2315L12.1189 13.2511H12.2189ZM12.3438 13.8052L12.2469 13.8297L12.2707 13.9241L12.3657 13.9028L12.3438 13.8052ZM14.7696 13.4322L14.7787 13.5318L14.8243 13.5276L14.8509 13.4904L14.7696 13.4322ZM16.3181 11.5362L16.3909 11.6047L16.4593 11.5321L16.3868 11.4635L16.3181 11.5362ZM16.0454 11.287L16.1114 11.2119L16.1114 11.2119L16.0454 11.287ZM20.0602 15.1668L19.9739 15.2173L19.9739 15.2174L20.0602 15.1668ZM19.5074 14.2674L19.5198 14.1681L19.3073 14.1416L19.4233 14.3216L19.5074 14.2674ZM20.5831 16.1028L20.4948 16.1498L20.5925 16.3332L20.6749 16.1424L20.5831 16.1028ZM21.1649 14.554L21.2603 14.5841L21.293 14.4804L21.1869 14.4565L21.1649 14.554ZM16.8625 12.0853L16.9356 12.017L16.8626 11.9388L16.7895 12.0169L16.8625 12.0853ZM17.9322 13.363L17.9276 13.4629L18.1411 13.4728L18.0119 13.3025L17.9322 13.363ZM15.7837 13.3625L15.7044 13.3017L15.5736 13.4723L15.7884 13.4624L15.7837 13.3625ZM13.6443 15.1721L13.5579 15.1217L13.5579 15.1217L13.6443 15.1721ZM13.1312 16.1022L13.0392 16.1414L13.1221 16.3359L13.2199 16.1484L13.1312 16.1022ZM14.2016 14.2659L14.2855 14.3203L14.4021 14.1404L14.1893 14.1667L14.2016 14.2659ZM12.5536 14.5459L12.532 14.4482L12.4255 14.4718L12.4582 14.5758L12.5536 14.5459ZM14.2182 19.7636L14.2072 19.863L14.4174 19.8862L14.302 19.709L14.2182 19.7636ZM12.5429 19.4971L12.4474 19.4672L12.4147 19.5718L12.5218 19.5948L12.5429 19.4971ZM13.6475 18.8399L13.5611 18.8904L13.5612 18.8904L13.6475 18.8399ZM13.1321 17.9092L13.2207 17.8629L13.1228 17.6759L13.0401 17.87L13.1321 17.9092ZM16.884 21.9437L16.811 22.0121L16.8847 22.0908L16.9576 22.0113L16.884 21.9437ZM15.7903 20.6486L15.7941 20.5487L15.5812 20.5404L15.7109 20.7095L15.7903 20.6486ZM17.9512 20.6449L18.0314 20.7046L18.157 20.5357L17.9467 20.545L17.9512 20.6449ZM20.5905 17.8816L20.6819 17.8411L20.598 17.6519L20.5019 17.8352L20.5905 17.8816ZM21.2009 19.4638L21.223 19.5613L21.3297 19.5372L21.2961 19.4331L21.2009 19.4638ZM20.0633 18.8346L19.9769 18.7842L19.9769 18.7842L20.0633 18.8346ZM19.5052 19.7498L19.4209 19.696L19.3075 19.874L19.517 19.8491L19.5052 19.7498ZM19.3906 18.4508V18.3508H19.3331L19.3041 18.4005L19.3906 18.4508ZM18.5185 19.8429L18.5255 19.9427L18.5742 19.9392L18.6015 19.8988L18.5185 19.8429ZM19.3907 18.4508V18.5508H19.4481L19.477 18.5012L19.3907 18.4508ZM20.1717 16.9949L20.2615 17.039L20.2834 16.9944L20.2611 16.9501L20.1717 16.9949ZM19.3881 15.5518L19.3017 15.6022L19.3018 15.6023L19.3881 15.5518ZM18.5122 14.1681L18.5948 14.1117L18.5676 14.072L18.5197 14.0684L18.5122 14.1681ZM15.1986 14.1676L15.1912 14.0679L15.1435 14.0715L15.1163 14.1109L15.1986 14.1676ZM14.3172 15.556H14.2172V15.9263L14.4036 15.6063L14.3172 15.556ZM14.3172 15.5558H14.4172V15.1857L14.2308 15.5055L14.3172 15.5558ZM13.544 17.0058L13.454 16.9621L13.4328 17.0059L13.4541 17.0496L13.544 17.0058ZM14.3195 18.455L14.4059 18.4045L14.4058 18.4045L14.3195 18.455ZM15.208 19.8493L15.1257 19.9062L15.1533 19.946L15.2016 19.9491L15.208 19.8493ZM20.9926 9.87066L21.0421 9.78381L21.0421 9.7838L20.9926 9.87066ZM21.4556 13.4556L21.5534 13.4761L21.5535 13.476L21.4556 13.4556ZM17.8247 11.1564L17.7594 11.0806L17.7593 11.0807L17.8247 11.1564ZM17.4067 11.5358L17.3376 11.4634L17.2659 11.5319L17.3337 11.6042L17.4067 11.5358ZM18.9433 13.4333L18.8617 13.4911L18.8883 13.5286L18.934 13.5328L18.9433 13.4333ZM21.3738 13.8132L21.3516 13.9107L21.4473 13.9325L21.4709 13.8372L21.3738 13.8132ZM22.743 14.0933C22.548 14.0271 22.3512 13.9658 22.1531 13.9094L22.0983 14.1018C22.2933 14.1572 22.4868 14.2176 22.6787 14.2827L22.743 14.0933ZM26.0429 16.9873C26.0429 16.4048 25.7021 15.8468 25.1281 15.3563C24.553 14.8647 23.7325 14.4303 22.7431 14.0934L22.6786 14.2827C23.6526 14.6144 24.4481 15.0382 24.9982 15.5083C25.5494 15.9794 25.8429 16.4868 25.8429 16.9873H26.0429ZM22.5342 19.9995C23.5841 19.6553 24.4566 19.2033 25.0687 18.6899C25.6794 18.1779 26.0429 17.594 26.0429 16.9873H25.8429C25.8429 17.5103 25.5285 18.0434 24.9402 18.5367C24.3534 19.0288 23.506 19.4705 22.4719 19.8094L22.5342 19.9995ZM22.1931 20.1049C22.309 20.071 22.4229 20.036 22.5343 19.9995L22.4719 19.8094C22.363 19.8452 22.2512 19.8796 22.137 19.9129L22.1931 20.1049ZM22.3721 20.4701C22.3404 20.3112 22.3034 20.1492 22.262 19.9845L22.068 20.0333C22.1087 20.1952 22.145 20.354 22.176 20.5093L22.3721 20.4701ZM21.4433 24.881C21.9658 24.5817 22.2992 23.9872 22.4518 23.2231C22.6047 22.4574 22.5796 21.507 22.3721 20.4701L22.176 20.5093C22.3799 21.5284 22.4021 22.4511 22.2557 23.184C22.109 23.9185 21.7964 24.4482 21.3439 24.7074L21.4433 24.881ZM17.3139 23.5645C18.0928 24.2277 18.8716 24.6974 19.58 24.9322C20.2873 25.1668 20.9372 25.1708 21.4433 24.881L21.3439 24.7074C20.9058 24.9583 20.3208 24.9671 19.6429 24.7424C18.9662 24.518 18.2096 24.0645 17.4435 23.4122L17.3139 23.5645ZM16.8183 23.1171C16.9792 23.2708 17.1444 23.4199 17.3138 23.5645L17.4436 23.4123C17.2771 23.2702 17.1146 23.1235 16.9564 22.9725L16.8183 23.1171ZM16.5734 23.4664C16.7009 23.3561 16.8287 23.2393 16.9564 23.117L16.8182 22.9725C16.6925 23.0927 16.5672 23.2073 16.4426 23.3151L16.5734 23.4664ZM12.2495 24.8725C12.7722 25.1708 13.4586 25.1596 14.2033 24.9091C14.9497 24.6579 15.7691 24.162 16.5734 23.4664L16.4426 23.3151C15.6519 23.9989 14.8548 24.4789 14.1395 24.7195C13.4224 24.9608 12.8018 24.9574 12.3486 24.6988L12.2495 24.8725ZM11.3392 20.6732C11.1475 21.6722 11.1252 22.5747 11.2734 23.2996C11.4214 24.0237 11.7428 24.5833 12.2495 24.8725L12.3486 24.6988C11.9105 24.4488 11.6109 23.9522 11.4693 23.2596C11.3279 22.5679 11.3472 21.6932 11.5357 20.7109L11.3392 20.6732ZM11.4833 20.0255C11.4292 20.24 11.3812 20.456 11.3393 20.6731L11.5356 20.711C11.5768 20.4976 11.624 20.2853 11.6772 20.0744L11.4833 20.0255ZM11.0568 19.9927C11.2209 20.0479 11.3864 20.0991 11.5531 20.1462L11.6074 19.9537C11.4439 19.9076 11.2816 19.8573 11.1206 19.8032L11.0568 19.9927ZM7.66465 16.9873C7.66465 17.5855 8.01796 18.1689 8.60939 18.682C9.2023 19.1964 10.0459 19.6509 11.0567 19.9927L11.1207 19.8032C10.1268 19.4671 9.3084 19.0237 8.74046 18.5309C8.17103 18.0369 7.86465 17.5039 7.86465 16.9873H7.66465ZM10.8857 14.1092C9.91553 14.4439 9.11449 14.8754 8.55403 15.3644C7.99446 15.8527 7.66465 16.4078 7.66465 16.9873H7.86465C7.86465 16.4877 8.1494 15.9829 8.68552 15.5151C9.22075 15.0481 9.99654 14.6275 10.9509 14.2983L10.8857 14.1092ZM11.5641 13.8982C11.3296 13.9641 11.1029 14.0344 10.8857 14.1092L10.9509 14.2983C11.164 14.2248 11.387 14.1557 11.6182 14.0907L11.5641 13.8982ZM11.3587 13.4182C11.3987 13.6195 11.4439 13.8199 11.4942 14.0189L11.6881 13.9699C11.6386 13.7742 11.5942 13.5772 11.5548 13.3792L11.3587 13.4182ZM12.2363 9.14177C11.7274 9.43321 11.41 10.0043 11.2683 10.7422C11.1265 11.4813 11.1576 12.4018 11.3587 13.4181L11.5549 13.3793C11.3571 12.3794 11.3292 11.4861 11.4647 10.7799C11.6006 10.0724 11.8971 9.56649 12.3357 9.31531L12.2363 9.14177ZM16.627 10.6374C15.7999 9.91071 14.9673 9.39014 14.2117 9.12322C13.4579 8.85689 12.7658 8.83846 12.2363 9.14176L12.3357 9.31532C12.7941 9.05276 13.4188 9.05521 14.1451 9.3118C14.8696 9.56777 15.6806 10.0721 16.495 10.7876L16.627 10.6374ZM16.931 10.9152C16.8315 10.8208 16.7301 10.7282 16.6271 10.6374L16.4949 10.7876C16.5961 10.8766 16.6956 10.9676 16.7934 11.0603L16.931 10.9152ZM17.2495 10.5011C17.0939 10.6354 16.9417 10.7735 16.7931 10.9154L16.9313 11.0601C17.0774 10.9205 17.2271 10.7846 17.3802 10.6525L17.2495 10.5011ZM21.43 9.1182C20.9209 8.82773 20.263 8.84086 19.5468 9.08772C18.8292 9.33507 18.039 9.8213 17.2496 10.501L17.3801 10.6526C18.157 9.98363 18.9255 9.51344 19.612 9.27681C20.2999 9.03969 20.8916 9.04128 21.3308 9.29191L21.43 9.1182ZM22.314 13.6311C22.5372 12.559 22.5773 11.5849 22.4336 10.8035C22.2902 10.0237 21.9604 9.42078 21.4299 9.1182L21.3308 9.29192C21.7895 9.55354 22.099 10.0896 22.2369 10.8397C22.3745 11.5882 22.338 12.5349 22.1182 13.5903L22.314 13.6311ZM22.2227 14.0297C22.2556 13.8974 22.2861 13.7646 22.314 13.6312L22.1182 13.5902C22.0908 13.7211 22.0609 13.8516 22.0286 13.9814L22.2227 14.0297ZM22.2277 19.0802C22.1295 19.1123 22.0285 19.1435 21.9254 19.1737L21.9817 19.3656C22.0865 19.3349 22.1895 19.3031 22.29 19.2702L22.2277 19.0802ZM22.259 19.0752H22.2589V19.2752H22.259V19.0752ZM25.0664 16.9873C25.0664 17.2856 24.8234 17.659 24.3264 18.0415C23.8357 18.4192 23.1198 18.7877 22.2278 19.0802L22.2901 19.2702C23.1974 18.9727 23.9352 18.595 24.4484 18.2C24.9553 17.8099 25.2664 17.3844 25.2664 16.9873H25.0664ZM22.4259 15.0092C23.2596 15.2931 23.9259 15.6435 24.3815 15.9998C24.8432 16.3608 25.0664 16.7098 25.0664 16.9873H25.2664C25.2664 16.6121 24.9766 16.2112 24.5047 15.8422C24.0268 15.4686 23.3389 15.1089 22.4904 14.8199L22.4259 15.0092ZM21.8902 14.842C22.0747 14.8949 22.2537 14.9505 22.4259 15.0092L22.4904 14.8199C22.3147 14.76 22.1326 14.7034 21.9453 14.6497L21.8902 14.842ZM21.1236 17.0336C21.4878 16.2572 21.788 15.4966 22.0132 14.7757L21.8223 14.716C21.6002 15.4271 21.3035 16.1793 20.9425 16.9487L21.1236 17.0336ZM22.0488 19.2392C21.8171 18.5135 21.5047 17.7429 21.1232 16.9479L20.9429 17.0344C21.3211 17.8226 21.6298 18.5846 21.8583 19.3001L22.0488 19.2392ZM21.4142 20.6585C21.5945 21.5594 21.6188 22.3679 21.5014 22.9943L21.6979 23.0311C21.8215 22.3723 21.7939 21.5368 21.6103 20.6193L21.4142 20.6585ZM21.3169 20.2281C21.3536 20.3748 21.3862 20.5184 21.4142 20.6585L21.6103 20.6193C21.5816 20.4756 21.5483 20.329 21.5109 20.1796L21.3169 20.2281ZM18.9606 20.6789C19.8433 20.6014 20.6782 20.4747 21.4362 20.3013L21.3916 20.1063C20.6438 20.2774 19.8181 20.4029 18.9431 20.4797L18.9606 20.6789ZM17.5016 22.5615C18.0174 22.0033 18.5321 21.3552 19.0339 20.6365L18.8699 20.5221C18.3724 21.2346 17.8633 21.8753 17.3547 22.4258L17.5016 22.5615ZM17.9501 22.8298C17.8001 22.7022 17.6489 22.5657 17.4971 22.4212L17.3592 22.5661C17.5135 22.7129 17.6675 22.8519 17.8204 22.9821L17.9501 22.8298ZM20.9548 24.0425C20.7087 24.1834 20.2966 24.1724 19.761 23.969C19.2314 23.7679 18.6045 23.387 17.9501 22.8298L17.8204 22.9821C18.4872 23.5498 19.1335 23.9446 19.69 24.156C20.2404 24.365 20.7273 24.4032 21.0542 24.216L20.9548 24.0425ZM21.5014 22.9943C21.3948 23.5627 21.1851 23.9105 20.9548 24.0425L21.0542 24.216C21.3622 24.0396 21.588 23.6175 21.6979 23.0311L21.5014 22.9943ZM13.929 23.9782C13.3776 24.1709 12.9676 24.1649 12.7367 24.0331L12.6376 24.2069C12.9455 24.3825 13.4271 24.3654 13.995 24.167L13.929 23.9782ZM13.9621 23.9726H13.962V24.1726H13.9621V23.9726ZM15.9316 22.7365C15.2327 23.341 14.5367 23.7658 13.9291 23.9782L13.9951 24.167C14.6332 23.9439 15.3507 23.5033 16.0624 22.8878L15.9316 22.7365ZM16.2742 22.4243C16.1626 22.5312 16.0483 22.6353 15.9315 22.7366L16.0625 22.8877C16.1818 22.7843 16.2985 22.6779 16.4125 22.5688L16.2742 22.4243ZM14.7017 20.6474C15.2069 21.3509 15.7364 21.998 16.2706 22.5651L16.4162 22.428C15.8887 21.8679 15.3648 21.2278 14.8642 20.5308L14.7017 20.6474ZM12.3118 20.3359C13.0615 20.5 13.8903 20.6178 14.7749 20.6888L14.7909 20.4894C13.9137 20.419 13.094 20.3023 12.3546 20.1405L12.3118 20.3359ZM12.2987 20.8543C12.337 20.6559 12.3808 20.4586 12.4302 20.2626L12.2363 20.2138C12.186 20.4134 12.1413 20.6143 12.1023 20.8164L12.2987 20.8543ZM12.7367 24.0331C12.4908 23.8929 12.2949 23.5349 12.2056 22.9746C12.1173 22.4206 12.1377 21.6933 12.2987 20.8542L12.1023 20.8165C11.9382 21.6716 11.9152 22.4231 12.0081 23.0061C12.1 23.5828 12.31 24.02 12.6376 24.2069L12.7367 24.0331ZM11.3719 19.0762C10.4934 18.779 9.77371 18.3947 9.28435 17.9802L9.15508 18.1328C9.66925 18.5684 10.4136 18.9632 11.3079 19.2656L11.3719 19.0762ZM11.8159 19.2136C11.6668 19.1714 11.5187 19.1255 11.3718 19.0761L11.308 19.2657C11.4579 19.3161 11.6091 19.363 11.7614 19.4061L11.8159 19.2136ZM12.595 16.9639C12.2285 17.7531 11.9242 18.5349 11.6931 19.2803L11.8842 19.3395C12.1123 18.6035 12.4133 17.8301 12.7764 17.0482L12.595 16.9639ZM11.7042 14.7642C11.9332 15.501 12.2332 16.2706 12.595 17.0482L12.7763 16.9639C12.4179 16.1935 12.1212 15.4322 11.8952 14.7049L11.7042 14.7642ZM11.2065 15.0239C11.4113 14.9536 11.6181 14.8892 11.8266 14.8308L11.7727 14.6382C11.5604 14.6976 11.3499 14.7632 11.1415 14.8347L11.2065 15.0239ZM8.64119 16.9873C8.64119 16.7074 8.85638 16.3606 9.30282 16.0038C9.744 15.6511 10.3912 15.3051 11.2066 15.0238L11.1414 14.8348C10.3109 15.1213 9.64169 15.4769 9.17794 15.8476C8.71945 16.214 8.44119 16.6124 8.44119 16.9873H8.64119ZM9.28436 17.9802C8.84005 17.6037 8.64119 17.2499 8.64119 16.9873H8.44119C8.44119 17.3404 8.69768 17.7452 9.15506 18.1328L9.28436 17.9802ZM12.317 13.2317C12.1477 12.3758 12.1204 11.63 12.2037 11.0616C12.288 10.486 12.4813 10.1197 12.7248 9.98028L12.6254 9.80673C12.2979 9.99428 12.0922 10.4431 12.0058 11.0326C11.9183 11.6294 11.9484 12.3989 12.1208 13.2705L12.317 13.2317ZM12.1189 13.2511V13.2511H12.3189V13.2511H12.1189ZM12.4408 13.7807C12.3949 13.5987 12.3536 13.4156 12.317 13.2315L12.1208 13.2706C12.1581 13.458 12.2001 13.6444 12.2469 13.8297L12.4408 13.7807ZM14.7605 13.3326C13.9017 13.4114 13.079 13.5379 12.322 13.7076L12.3657 13.9028C13.1135 13.7352 13.9276 13.6099 14.7787 13.5318L14.7605 13.3326ZM16.2453 11.4676C15.7138 12.0323 15.1892 12.6746 14.6883 13.374L14.8509 13.4904C15.3471 12.7975 15.8662 12.1622 16.3909 11.6047L16.2453 11.4676ZM15.9794 11.3622C16.0689 11.4408 16.159 11.5233 16.2494 11.6088L16.3868 11.4635C16.2949 11.3766 16.203 11.2924 16.1114 11.2119L15.9794 11.3622ZM12.7248 9.98028C12.9868 9.83021 13.4362 9.85167 14.0196 10.0855C14.5958 10.3165 15.2768 10.745 15.9794 11.3622L16.1114 11.2119C15.3966 10.584 14.6965 10.1414 14.094 9.89989C13.4986 9.6612 12.9715 9.60848 12.6254 9.80673L12.7248 9.98028ZM20.1465 15.1163C19.968 14.8114 19.783 14.5102 19.5914 14.2132L19.4233 14.3216C19.6133 14.6162 19.7969 14.9149 19.9739 15.2173L20.1465 15.1163ZM20.6713 16.0557C20.5027 15.7392 20.3277 15.426 20.1465 15.1163L19.9739 15.2174C20.1538 15.5247 20.3275 15.8356 20.4948 16.1498L20.6713 16.0557ZM21.0695 14.5239C20.914 15.0171 20.72 15.5334 20.4913 16.0631L20.6749 16.1424C20.906 15.6071 21.1025 15.0845 21.2603 14.5841L21.0695 14.5239ZM19.495 14.3666C20.0721 14.4387 20.6245 14.5344 21.1429 14.6515L21.1869 14.4565C20.6617 14.3378 20.1028 14.2409 19.5198 14.1681L19.495 14.3666ZM16.7894 12.1535C17.145 12.5346 17.5015 12.9607 17.8526 13.4234L18.0119 13.3025C17.6573 12.835 17.2964 12.4037 16.9356 12.017L16.7894 12.1535ZM15.8631 13.4233C16.2144 12.9649 16.5741 12.5394 16.9355 12.1536L16.7895 12.0169C16.4233 12.4078 16.0594 12.8385 15.7044 13.3017L15.8631 13.4233ZM17.9369 13.2631C17.2181 13.2295 16.498 13.2293 15.7791 13.2626L15.7884 13.4624C16.5011 13.4294 17.2149 13.4295 17.9276 13.4629L17.9369 13.2631ZM13.5579 15.1217C13.3788 15.4291 13.207 15.7406 13.0425 16.056L13.2199 16.1484C13.3829 15.8359 13.5532 15.5271 13.7307 15.2224L13.5579 15.1217ZM14.1177 14.2116C13.9239 14.5106 13.7373 14.814 13.5579 15.1217L13.7307 15.2224C13.9085 14.9175 14.0935 14.6167 14.2855 14.3203L14.1177 14.2116ZM12.5752 14.6435C13.0905 14.5294 13.6404 14.4361 14.2139 14.3652L14.1893 14.1667C13.6102 14.2383 13.054 14.3326 12.532 14.4482L12.5752 14.6435ZM13.2232 16.063C12.9982 15.5351 12.8059 15.0164 12.649 14.516L12.4582 14.5758C12.6172 15.0831 12.8119 15.6079 13.0392 16.1414L13.2232 16.063ZM14.2292 19.6642C13.6367 19.5987 13.0787 19.5102 12.5639 19.3993L12.5218 19.5948C13.0441 19.7073 13.609 19.7969 14.2072 19.863L14.2292 19.6642ZM13.5612 18.8904C13.7448 19.2041 13.9359 19.5135 14.1344 19.8182L14.302 19.709C14.1052 19.407 13.9158 19.1004 13.7338 18.7894L13.5612 18.8904ZM13.0435 17.9556C13.2086 18.2712 13.3812 18.5829 13.5611 18.8904L13.7338 18.7894C13.5554 18.4846 13.3844 18.1757 13.2207 17.8629L13.0435 17.9556ZM12.6383 19.5269C12.7977 19.0176 12.9943 18.4877 13.2241 17.9484L13.0401 17.87C12.8079 18.4149 12.609 18.951 12.4474 19.4672L12.6383 19.5269ZM16.957 21.8753C16.5913 21.485 16.2264 21.0529 15.8696 20.5878L15.7109 20.7095C16.0713 21.1793 16.4405 21.6165 16.811 22.0121L16.957 21.8753ZM17.8709 20.5852C17.5187 21.0588 17.1634 21.4914 16.8103 21.8761L16.9576 22.0113C17.316 21.6209 17.6756 21.183 18.0314 20.7046L17.8709 20.5852ZM16.8538 20.769C17.2258 20.769 17.5936 20.7608 17.9556 20.7448L17.9467 20.545C17.5877 20.5608 17.2229 20.569 16.8538 20.569V20.769ZM15.7864 20.7486C16.1357 20.7621 16.4919 20.769 16.8538 20.769V20.569C16.4944 20.569 16.1408 20.5622 15.7941 20.5487L15.7864 20.7486ZM20.4991 17.9222C20.7408 18.4674 20.9443 18.9942 21.1058 19.4945L21.2961 19.4331C21.1322 18.9252 20.9261 18.3918 20.6819 17.8411L20.4991 17.9222ZM20.1497 18.8849C20.3333 18.5699 20.5098 18.2509 20.6791 17.9281L20.5019 17.8352C20.3341 18.1553 20.159 18.4718 19.9769 18.7842L20.1497 18.8849ZM19.5895 19.8036C19.7824 19.5011 19.9692 19.1948 20.1497 18.8849L19.9769 18.7842C19.7977 19.0918 19.6123 19.3958 19.4209 19.696L19.5895 19.8036ZM21.1789 19.3663C20.6556 19.4844 20.09 19.5797 19.4934 19.6505L19.517 19.8491C20.1196 19.7776 20.6921 19.6812 21.223 19.5613L21.1789 19.3663ZM19.3041 18.4005C19.0299 18.8719 18.7402 19.3343 18.4355 19.7871L18.6015 19.8988C18.9085 19.4424 19.2005 18.9762 19.477 18.501L19.3041 18.4005ZM19.3907 18.3508H19.3906V18.5508H19.3907V18.3508ZM20.082 16.9508C19.8402 17.443 19.5808 17.9265 19.3043 18.4004L19.477 18.5012C19.756 18.0231 20.0176 17.5354 20.2615 17.039L20.082 16.9508ZM19.3018 15.6023C19.5777 16.073 19.838 16.5523 20.0824 17.0397L20.2611 16.9501C20.0148 16.4588 19.7524 15.9756 19.4743 15.5012L19.3018 15.6023ZM18.4297 14.2246C18.7367 14.6735 19.0275 15.133 19.3017 15.6022L19.4744 15.5013C19.1978 15.028 18.9044 14.5645 18.5948 14.1117L18.4297 14.2246ZM16.8539 14.206C17.4142 14.206 17.9667 14.2273 18.5047 14.2678L18.5197 14.0684C17.9768 14.0274 17.4192 14.006 16.8539 14.006V14.206ZM15.2061 14.2674C15.7442 14.2271 16.2961 14.206 16.8539 14.206V14.006C16.291 14.006 15.7343 14.0273 15.1912 14.0679L15.2061 14.2674ZM14.4036 15.6063C14.6783 15.1349 14.9709 14.6739 15.2809 14.2244L15.1163 14.1109C14.8034 14.5645 14.508 15.0298 14.2308 15.5057L14.4036 15.6063ZM14.2172 15.5558V15.556H14.4172V15.5558H14.2172ZM13.634 17.0495C13.8721 16.559 14.1289 16.0776 14.4036 15.6062L14.2308 15.5055C13.9535 15.9812 13.6944 16.4671 13.454 16.9621L13.634 17.0495ZM14.4058 18.4045C14.1302 17.9335 13.8727 17.4523 13.6339 16.962L13.4541 17.0496C13.6951 17.5445 13.955 18.0301 14.2332 18.5055L14.4058 18.4045ZM15.2902 19.7924C14.9778 19.341 14.6828 18.878 14.4059 18.4045L14.2332 18.5055C14.5128 18.9833 14.8105 19.4506 15.1257 19.9062L15.2902 19.7924ZM16.8538 19.8007C16.2902 19.8007 15.7421 19.7834 15.2144 19.7495L15.2016 19.9491C15.7337 19.9832 16.2861 20.0007 16.8538 20.0007V19.8007ZM18.5114 19.7432C17.9745 19.7811 17.4195 19.8007 16.8538 19.8007V20.0007C17.4241 20.0007 17.9838 19.981 18.5255 19.9427L18.5114 19.7432ZM20.943 9.95751C21.2048 10.1069 21.4102 10.502 21.4967 11.1185C21.5822 11.7274 21.5472 12.5248 21.3577 13.4352L21.5535 13.476C21.7464 12.5495 21.7843 11.7282 21.6948 11.0907C21.6064 10.4607 21.389 9.98176 21.0421 9.78381L20.943 9.95751ZM17.8899 11.2322C18.555 10.6596 19.1946 10.2635 19.7342 10.0509C20.2808 9.83562 20.6989 9.8182 20.943 9.95751L21.0421 9.7838C20.7148 9.59701 20.2199 9.64465 19.6609 9.86485C19.0951 10.0878 18.4365 10.4977 17.7594 11.0806L17.8899 11.2322ZM17.4757 11.6081C17.6106 11.4794 17.7488 11.354 17.89 11.2321L17.7593 11.0807C17.6156 11.2048 17.475 11.3324 17.3376 11.4634L17.4757 11.6081ZM19.0248 13.3754C18.5231 12.6685 18.0027 12.025 17.4796 11.4674L17.3337 11.6042C17.8497 12.1543 18.3644 12.7906 18.8617 13.4911L19.0248 13.3754ZM21.3961 13.7157C20.6372 13.5424 19.8139 13.4136 18.9525 13.3337L18.934 13.5328C19.7876 13.6121 20.6022 13.7396 21.3516 13.9107L21.3961 13.7157ZM21.3577 13.4351C21.3329 13.5536 21.3059 13.6716 21.2768 13.7891L21.4709 13.8372C21.5006 13.7174 21.5281 13.597 21.5534 13.4761L21.3577 13.4351Z" fill="#717171"/>
<path d="M16.8537 15.3813C17.7503 15.3813 18.477 16.1004 18.477 16.9874C18.477 17.8745 17.7503 18.5936 16.8537 18.5936C15.9573 18.5936 15.2305 17.8745 15.2305 16.9874C15.2305 16.1004 15.9573 15.3813 16.8537 15.3813" fill="#717171"/>
</svg>
