<svg width="35" height="34" viewBox="0 0 35 34" fill="none" xmlns="http://www.w3.org/2000/svg">
<path d="M33.4156 17C33.4156 26.0317 26.1416 33.3462 17.1774 33.3462C8.21325 33.3462 0.939247 26.0317 0.939247 17C0.939247 7.96833 8.21325 0.653846 17.1774 0.653846C26.1416 0.653846 33.4156 7.96833 33.4156 17Z" stroke="#DFDFDF" stroke-width="1.30769"/>
<path fill-rule="evenodd" clip-rule="evenodd" d="M22.4111 14.0056C22.6077 14.0616 22.8028 14.1224 22.9963 14.1881C24.9596 14.8568 26.2283 15.9043 26.2283 16.9874C26.2283 18.117 24.8725 19.2214 22.7885 19.9045C22.6783 19.9407 22.5655 19.9754 22.4504 20.009C22.4915 20.1723 22.5281 20.3327 22.5594 20.4897C22.9709 22.5458 22.654 24.2358 21.679 24.7943C20.7349 25.335 19.2091 24.8038 17.6641 23.4885C17.4962 23.3451 17.3323 23.1972 17.1727 23.0448C17.046 23.1661 16.9195 23.2817 16.7934 23.3908C15.1984 24.7702 13.5604 25.3425 12.5845 24.7858C11.6396 24.2465 11.3426 22.6734 11.7228 20.6922C11.7644 20.4768 11.812 20.2627 11.8656 20.05C11.7005 20.0034 11.5366 19.9527 11.3741 19.898C9.36943 19.2201 8.05005 18.1021 8.05005 16.9874C8.05005 15.9082 9.27917 14.8677 11.2037 14.2038C11.4188 14.1296 11.6437 14.0599 11.8765 13.9945C11.8266 13.7971 11.7818 13.5984 11.7422 13.3988C11.3434 11.3825 11.624 9.77123 12.5714 9.2286C13.5594 8.66274 15.2048 9.27039 16.8464 10.7126C16.9485 10.8025 17.0489 10.8942 17.1476 10.9878C17.295 10.8471 17.4459 10.71 17.6002 10.5768C19.1666 9.2282 20.7175 8.66401 21.6658 9.20512C22.6548 9.76931 22.9445 11.4832 22.5015 13.6107C22.4738 13.7429 22.4437 13.8746 22.4111 14.0056ZM22.239 19.2697C22.3429 19.2392 22.4449 19.2078 22.5443 19.1752H22.5444C24.3436 18.5853 25.4518 17.6827 25.4518 16.9874C25.4518 16.3347 24.4258 15.4875 22.7435 14.9146C22.5696 14.8553 22.3891 14.7992 22.2032 14.7459C21.9795 15.4619 21.681 16.2183 21.3184 16.9912C21.6983 17.7828 22.0089 18.5491 22.239 19.2697ZM21.8851 23.0128C22.0056 22.3702 21.9796 21.5482 21.7977 20.639C21.7693 20.4971 21.7363 20.3519 21.6993 20.2039C20.9464 20.3761 20.1161 20.5022 19.2373 20.5794C18.7377 21.295 18.2258 21.9394 17.7135 22.4937C17.8666 22.6394 18.0192 22.7771 18.1707 22.906C19.4918 24.0309 20.717 24.4574 21.2899 24.1293C21.5591 23.9751 21.7768 23.5902 21.8851 23.0128ZM12.9725 24.1201C13.242 24.2738 13.6877 24.2682 14.2474 24.0726H14.2475C14.8703 23.8549 15.5771 23.4222 16.2824 22.8122C16.4005 22.7098 16.5159 22.6046 16.6288 22.4967C16.0979 21.933 15.5712 21.2894 15.0683 20.5892C14.1874 20.5185 13.3632 20.4012 12.6186 20.2383C12.5688 20.4361 12.5245 20.6352 12.4859 20.8354C12.1608 22.5297 12.3991 23.7929 12.9725 24.1201ZM9.50511 18.0566C10.0069 18.4816 10.7389 18.8712 11.6253 19.1709C11.7737 19.2209 11.9233 19.2672 12.0741 19.3099C12.3037 18.5693 12.6063 17.7917 12.9711 17.0061C12.611 16.2321 12.3126 15.4667 12.0851 14.7346C11.8746 14.7935 11.666 14.8584 11.4594 14.9294C9.81348 15.4971 8.82659 16.3325 8.82659 16.9874C8.82659 17.2952 9.05427 17.6745 9.50511 18.0566ZM12.9605 9.89356C12.3895 10.2206 12.1626 11.5237 12.5043 13.2512V13.2511C12.5412 13.4368 12.5829 13.6216 12.6292 13.8053C13.3816 13.6366 14.2 13.5107 15.055 13.4323C15.5535 12.7361 16.0754 12.0973 16.6035 11.5362C16.5123 11.45 16.4214 11.3667 16.3308 11.2871C14.9134 10.0419 13.5687 9.54524 12.9605 9.89356ZM19.7928 14.2674C19.9836 14.5633 20.1679 14.8632 20.3456 15.1669C20.5262 15.4754 20.7005 15.7874 20.8685 16.1028C21.0984 15.5703 21.2937 15.0508 21.4503 14.5541C20.9285 14.4362 20.3728 14.3399 19.7928 14.2674ZM18.2176 13.363C17.8648 12.8979 17.5061 12.4692 17.1479 12.0853C16.7841 12.4737 16.4223 12.9018 16.0691 13.3626C16.7849 13.3294 17.5019 13.3296 18.2176 13.363ZM13.4166 16.1023C13.5803 15.7883 13.7514 15.4782 13.9297 15.1721C14.1083 14.8658 14.2941 14.5637 14.487 14.266C13.9107 14.3372 13.3576 14.4311 12.839 14.5459C12.997 15.0498 13.1905 15.5716 13.4166 16.1023ZM12.8283 19.4971C13.3468 19.6088 13.9082 19.6979 14.5036 19.7636C14.3059 19.4603 14.1157 19.1523 13.9329 18.84C13.7537 18.5338 13.5819 18.2235 13.4175 17.9093C13.1865 18.4514 12.9888 18.9844 12.8283 19.4971ZM16.0757 20.6487C16.4342 21.1162 16.8013 21.5508 17.1694 21.9438C17.5251 21.5562 17.8826 21.1209 18.2366 20.6449C17.8761 20.6609 17.5098 20.6691 17.1392 20.6691C16.7786 20.6691 16.4237 20.6622 16.0757 20.6487ZM21.4863 19.4639C21.3237 18.9598 21.1189 18.4296 20.8759 17.8817C20.7073 18.2032 20.5316 18.5209 20.3487 18.8346C20.1688 19.1433 19.9828 19.4485 19.7906 19.7499C20.3902 19.6787 20.9592 19.5829 21.4863 19.4639ZM18.8039 19.843C19.1098 19.3884 19.4006 18.9241 19.676 18.4508H19.6761C19.9538 17.9749 20.2143 17.4893 20.4571 16.995C20.2118 16.5056 19.9504 16.0243 19.6735 15.5518C19.3981 15.0806 19.1059 14.6191 18.7976 14.1682C18.2572 14.1274 17.7021 14.1061 17.1393 14.1061C16.579 14.1061 16.0247 14.1273 15.484 14.1677C15.1726 14.6193 14.8785 15.0824 14.6026 15.5561V15.5559C14.3266 16.0295 14.0687 16.5131 13.8294 17.0059C14.0693 17.4985 14.328 17.9819 14.6049 18.455C14.8832 18.9307 15.1796 19.3958 15.4934 19.8494C16.0233 19.8833 16.5736 19.9008 17.1392 19.9008C17.7072 19.9008 18.2646 19.8811 18.8039 19.843ZM21.741 13.4557C22.1234 11.6188 21.8867 10.2181 21.278 9.87072C20.7065 9.5446 19.4522 10.0009 18.1101 11.1565C17.9676 11.2795 17.8282 11.406 17.6921 11.5358C18.2116 12.0897 18.7292 12.7296 19.2287 13.4333C20.0861 13.5129 20.9051 13.6411 21.6592 13.8132C21.6887 13.6946 21.7159 13.5753 21.741 13.4557Z" fill="#717171"/>
<path d="M17.1391 15.3813C18.0357 15.3813 18.7624 16.1004 18.7624 16.9874C18.7624 17.8745 18.0357 18.5936 17.1391 18.5936C16.2427 18.5936 15.5159 17.8745 15.5159 16.9874C15.5159 16.1004 16.2427 15.3813 17.1391 15.3813Z" fill="#717171"/>
</svg>
