<svg width="34" height="34" viewBox="0 0 34 34" fill="none" xmlns="http://www.w3.org/2000/svg">
<path d="M33.284 17C33.284 26.1157 25.9421 33.5 16.892 33.5C7.84196 33.5 0.5 26.1157 0.5 17C0.5 7.88429 7.84196 0.5 16.892 0.5C25.9421 0.5 33.284 7.88429 33.284 17Z" stroke="#8F9596" stroke-opacity="0.3"/>
<path d="M14.4264 13.8634L12.632 20H10.9594L9.84059 15.7132L8.72182 20H7.03813L5.23259 13.8634H6.80551L7.89105 18.5378L9.0652 13.8634H10.7046L11.8566 18.5268L12.9421 13.8634H14.4264ZM20.9701 16.7988C20.9701 17.0203 20.9554 17.2197 20.9258 17.3969H16.4397C16.4766 17.84 16.6317 18.1871 16.9049 18.4382C17.1781 18.6892 17.5141 18.8148 17.9129 18.8148C18.4889 18.8148 18.8987 18.5674 19.1424 18.0726H20.815C20.6378 18.6634 20.2981 19.1508 19.796 19.5348C19.2938 19.9114 18.6772 20.0997 17.9461 20.0997C17.3554 20.0997 16.8237 19.9705 16.351 19.712C15.8858 19.4462 15.5203 19.0732 15.2544 18.5932C14.996 18.1132 14.8667 17.5594 14.8667 16.9317C14.8667 16.2966 14.996 15.7391 15.2544 15.2591C15.5129 14.7791 15.8747 14.4098 16.34 14.1514C16.8052 13.8929 17.3406 13.7637 17.9461 13.7637C18.5295 13.7637 19.0501 13.8892 19.508 14.1403C19.9732 14.3914 20.3314 14.7495 20.5824 15.2148C20.8409 15.6726 20.9701 16.2006 20.9701 16.7988ZM19.364 16.3557C19.3566 15.9569 19.2126 15.6394 18.932 15.4031C18.6514 15.1594 18.308 15.0375 17.9018 15.0375C17.5178 15.0375 17.1929 15.1557 16.927 15.392C16.6686 15.6209 16.5098 15.9422 16.4507 16.3557H19.364ZM23.6528 14.7606C23.8522 14.4652 24.1254 14.2252 24.4725 14.0406C24.827 13.856 25.2294 13.7637 25.6799 13.7637C26.2042 13.7637 26.6768 13.8929 27.0977 14.1514C27.526 14.4098 27.862 14.7791 28.1057 15.2591C28.3568 15.7317 28.4824 16.2818 28.4824 16.9095C28.4824 17.5372 28.3568 18.0948 28.1057 18.5822C27.862 19.0622 27.526 19.4351 27.0977 19.7009C26.6768 19.9668 26.2042 20.0997 25.6799 20.0997C25.222 20.0997 24.8196 20.0111 24.4725 19.8338C24.1328 19.6492 23.8596 19.4129 23.6528 19.1249V20H22.102V11.8031H23.6528V14.7606ZM26.8984 16.9095C26.8984 16.5403 26.8208 16.2228 26.6657 15.9569C26.518 15.6837 26.3187 15.4769 26.0676 15.3366C25.8239 15.1963 25.558 15.1262 25.27 15.1262C24.9894 15.1262 24.7236 15.2 24.4725 15.3477C24.2288 15.488 24.0294 15.6948 23.8744 15.968C23.7267 16.2412 23.6528 16.5625 23.6528 16.9317C23.6528 17.3009 23.7267 17.6222 23.8744 17.8954C24.0294 18.1686 24.2288 18.3791 24.4725 18.5268C24.7236 18.6671 24.9894 18.7372 25.27 18.7372C25.558 18.7372 25.8239 18.6634 26.0676 18.5157C26.3187 18.368 26.518 18.1575 26.6657 17.8843C26.8208 17.6111 26.8984 17.2862 26.8984 16.9095Z" fill="#717171"/>
</svg>
