<svg width="35" height="34" viewBox="0 0 35 34" fill="none" xmlns="http://www.w3.org/2000/svg">
<path d="M34.1236 17C34.1236 26.1157 26.7817 33.5 17.7316 33.5C8.68156 33.5 1.3396 26.1157 1.3396 17C1.3396 7.88429 8.68156 0.5 17.7316 0.5C26.7817 0.5 34.1236 7.88429 34.1236 17Z" stroke="#DFDFDF"/>
<path d="M13.7829 14.478L12.8708 17.8733L11.8826 14.478H10.1089L9.12072 17.8733L8.20855 14.478H6.18151L8.20855 20.8125H9.98221L10.9957 17.4299L12.0093 20.8125H13.7829L15.81 14.478H13.7829ZM18.0144 18.4054H22.5119C22.5625 18.1647 22.5879 17.9113 22.5879 17.6452C22.5879 15.7322 21.2196 14.3006 19.37 14.3006C17.3683 14.3006 16 15.7576 16 17.6452C16 19.5329 17.3429 20.9899 19.5093 20.9899C20.7129 20.9899 21.6504 20.5465 22.2712 19.685L20.7509 18.8108C20.4975 19.0895 20.0541 19.2922 19.5347 19.2922C18.8379 19.2922 18.2551 19.0642 18.0144 18.4054ZM17.9764 16.9865C18.1537 16.3403 18.6352 15.9856 19.3573 15.9856C19.9274 15.9856 20.4975 16.2517 20.7002 16.9865H17.9764ZM27.4538 14.3006C26.605 14.3006 25.9842 14.592 25.5661 15.0734V11.9442H23.6657V20.8125H25.5661V20.2171C25.9842 20.6985 26.605 20.9899 27.4538 20.9899C29.1134 20.9899 30.4817 19.5329 30.4817 17.6452C30.4817 15.7576 29.1134 14.3006 27.4538 14.3006ZM27.0737 19.1909C26.1995 19.1909 25.5661 18.5954 25.5661 17.6452C25.5661 16.6951 26.1995 16.0996 27.0737 16.0996C27.9479 16.0996 28.5813 16.6951 28.5813 17.6452C28.5813 18.5954 27.9479 19.1909 27.0737 19.1909Z" fill="#717171"/>
</svg>
