<svg width="22" height="22" viewBox="0 0 22 22" fill="none" xmlns="http://www.w3.org/2000/svg">
<path d="M21.3494 18.3861L16.7517 13.8239C17.6432 12.4306 18.1586 10.7788 18.1586 9.01063C18.1586 4.04241 14.0857 0 9.07886 0C4.072 0 0 4.04241 0 9.01063C0 13.9788 4.072 18.0213 9.07978 18.0213C10.774 18.0213 12.361 17.5583 13.719 16.7535L18.3573 21.356C20.3378 23.3185 23.3309 20.3514 21.3494 18.3861ZM2.81474 9.01063C2.81474 5.58329 5.62579 2.79394 9.07978 2.79394C12.5338 2.79394 15.3448 5.58237 15.3448 9.01063C15.3448 12.4389 12.5338 15.2273 9.07978 15.2273C5.62579 15.2273 2.81474 12.438 2.81474 9.01063Z" fill="#303030"/>
<rect x="8.42871" y="5" width="1.14286" height="8" rx="0.571429" fill="#303030"/>
<rect x="13" y="8.42859" width="1.14286" height="8" rx="0.571429" transform="rotate(90 13 8.42859)" fill="#303030"/>
</svg>
